<?xml version="1.0" standalone="no"?>
<!DOCTYPE svg PUBLIC "-//W3C//DTD SVG 20010904//EN"
 "http://www.w3.org/TR/2001/REC-SVG-20010904/DTD/svg10.dtd">
<svg version="1.0" xmlns="http://www.w3.org/2000/svg"
 width="1024.000000pt" height="788.000000pt" viewBox="0 0 1024.000000 788.000000"
 preserveAspectRatio="xMidYMid meet">

<g transform="translate(0.000000,788.000000) scale(0.100000,-0.100000)"
fill="#000000" stroke="none">
<path d="M338 7845 c3 -22 13 -42 28 -54 13 -10 24 -24 24 -30 0 -6 6 -8 13
-5 8 3 19 -2 26 -9 10 -13 15 -12 35 6 20 18 22 25 14 49 -6 16 -8 40 -5 53 4
25 3 25 -67 25 l-72 0 4 -35z"/>
<path d="M534 7858 c2 -13 6 -33 10 -46 6 -16 3 -29 -10 -43 -9 -10 -19 -42
-22 -70 -4 -45 -10 -57 -48 -92 -24 -23 -44 -47 -44 -54 0 -14 -6 -18 -42 -27
-23 -5 -27 -3 -30 21 -3 27 -54 66 -72 55 -5 -3 -14 2 -20 10 -16 20 -46 30
-60 19 -16 -13 -46 -8 -60 11 -17 23 -78 58 -103 58 -26 0 -23 121 -29 -1064
-3 -765 -2 -961 8 -968 10 -6 10 -8 1 -8 -10 0 -13 -377 -13 -1850 0 -1233 3
-1850 10 -1850 6 0 33 -11 62 -25 28 -14 58 -25 65 -25 7 0 13 -7 13 -15 0 -9
6 -12 16 -8 11 4 12 8 4 13 -15 9 34 18 110 19 30 1 63 4 72 7 10 3 19 -2 23
-15 6 -19 37 -35 91 -46 23 -4 35 -1 49 15 13 15 31 20 69 21 28 0 59 4 70 8
20 8 87 -7 123 -27 12 -6 30 -12 40 -12 10 0 41 -14 68 -30 28 -16 61 -30 75
-30 17 0 39 -14 65 -41 l39 -41 -25 -47 c-14 -27 -32 -47 -44 -49 -11 -2 -28
-11 -38 -20 -15 -13 -22 -14 -37 -4 -32 20 -45 14 -23 -10 44 -49 69 -121 47
-138 -11 -10 -25 -2 -69 35 -43 37 -61 46 -81 42 -16 -3 -28 0 -31 9 -3 8 -9
11 -14 8 -15 -9 -10 -56 7 -75 14 -16 14 -18 -8 -30 -13 -6 -36 -23 -51 -35
-16 -13 -38 -24 -49 -24 -30 0 -75 -37 -94 -76 -15 -32 -15 -41 -1 -112 13
-66 13 -78 1 -85 -8 -4 -14 -21 -14 -36 0 -34 -30 -64 -62 -59 -19 2 -22 8
-20 30 3 22 -2 30 -25 40 -15 7 -30 13 -32 15 -3 2 5 14 17 26 l22 24 -30 41
c-20 28 -50 52 -88 70 -61 29 -68 42 -79 143 -5 51 24 117 48 110 8 -2 28 -6
44 -9 17 -2 38 -12 48 -20 31 -27 68 13 102 112 23 64 19 78 -30 120 l-46 37
-46 -30 c-26 -17 -54 -31 -62 -31 -16 0 -90 54 -123 89 -9 10 -18 28 -20 40
-4 29 -21 27 -30 -4 -5 -19 -2 -28 13 -35 21 -12 26 -50 6 -50 -7 0 -43 15
-80 34 l-67 33 0 -55 c0 -52 1 -54 18 -39 17 15 21 15 60 -4 40 -20 82 -61 82
-80 0 -12 -37 -11 -45 1 -3 5 -17 10 -29 10 -13 0 -35 9 -49 20 -14 11 -28 20
-31 20 -3 0 -6 -57 -6 -127 1 -92 3 -123 11 -110 5 9 17 17 25 17 9 0 22 6 30
14 12 12 20 12 56 -6 56 -26 55 -26 24 -37 -14 -6 -26 -16 -26 -22 0 -14 41
-48 58 -49 9 0 12 -13 10 -42 -3 -48 -26 -62 -56 -35 -25 22 -78 27 -74 6 1
-9 -7 -24 -18 -34 -18 -17 -19 -19 -3 -30 15 -11 15 -15 3 -30 -13 -16 -15
-16 -27 1 -11 15 -13 -60 -13 -433 0 -446 0 -451 20 -446 15 4 20 0 20 -16 0
-11 9 -26 20 -33 30 -19 24 -28 -20 -28 l-40 0 0 -120 0 -120 781 0 782 0 -8
37 c-5 21 -9 59 -10 85 -3 65 -49 118 -102 118 -55 0 -66 -76 -12 -87 16 -3
29 -12 29 -19 0 -18 -58 -7 -85 16 -11 9 -41 28 -67 40 -27 13 -48 29 -48 36
0 13 72 34 118 34 35 0 44 10 62 70 7 25 23 56 35 70 31 35 55 89 44 96 -5 3
-7 15 -3 28 5 22 -6 40 -59 97 -15 17 -16 25 -6 62 14 57 9 112 -11 113 -8 0
-27 4 -41 8 -23 6 -32 2 -63 -28 -46 -47 -73 -47 -82 -1 -6 34 -24 49 -24 21
0 -17 -47 -27 -76 -16 -37 14 -44 70 -9 70 7 0 15 7 19 15 7 19 23 19 58 1 23
-12 29 -12 38 -1 6 8 21 15 33 17 16 2 23 11 25 31 6 49 45 45 104 -11 25 -23
29 -24 74 -13 40 10 49 10 64 -4 15 -13 23 -14 39 -5 24 12 27 40 9 71 -10 17
-10 23 -1 26 7 3 13 8 13 13 0 4 13 22 30 40 16 18 30 26 30 19 0 -10 3 -10
12 -1 10 10 10 15 -2 22 -8 5 -11 10 -6 10 5 0 -3 9 -18 21 -14 11 -26 29 -26
40 0 20 -6 21 -73 21 -27 0 -43 -7 -56 -24 -22 -26 -30 -22 -37 18 -3 16 -12
34 -21 41 -13 10 -13 15 -4 27 17 20 4 25 -65 22 -45 -2 -70 -9 -93 -26 -24
-16 -35 -20 -44 -11 -6 6 -23 11 -37 11 -29 0 -70 37 -70 62 0 9 -4 18 -9 20
-4 2 -11 13 -15 25 -6 17 -1 25 21 36 15 8 47 17 70 20 36 4 44 2 58 -19 10
-16 25 -24 43 -24 16 0 33 -5 40 -12 17 -17 32 1 36 46 2 27 -2 40 -14 46 -25
13 -24 90 0 90 24 0 51 32 40 49 -4 8 -6 20 -3 26 2 7 -16 24 -40 38 -48 28
-64 54 -47 71 8 8 16 4 29 -13 16 -21 19 -21 24 -7 5 12 -2 25 -22 42 -27 22
-48 70 -37 82 3 2 13 -4 23 -16 29 -33 57 -36 73 -7 11 20 11 27 0 40 -7 9
-24 37 -36 63 -20 42 -23 45 -30 24 -9 -30 -48 -39 -71 -16 -33 32 -62 77 -57
85 3 5 14 9 25 9 10 0 19 7 19 15 0 8 -5 15 -12 15 -8 0 -6 6 4 16 23 24 114
31 136 12 9 -9 34 -19 56 -22 21 -4 46 -11 55 -15 88 -42 116 -60 137 -88 40
-52 88 -61 210 -37 26 5 37 0 73 -35 34 -32 48 -40 67 -35 13 3 31 3 40 0 15
-6 15 -8 1 -24 -15 -17 -15 -19 3 -35 28 -24 44 -22 37 5 -4 14 0 29 10 40 13
15 13 18 2 19 -8 1 -3 4 11 8 22 6 25 13 26 51 3 76 4 80 18 80 7 0 19 7 26
15 14 17 65 20 75 5 10 -16 35 1 35 24 0 38 14 48 54 41 31 -6 41 -3 62 16 19
18 34 22 69 20 42 -2 115 -34 115 -50 0 -3 16 -15 35 -25 27 -15 37 -16 49 -7
11 10 22 8 53 -8 46 -23 68 -59 59 -95 -3 -14 -9 -36 -12 -49 -4 -15 1 -28 16
-42 11 -11 30 -30 42 -43 12 -12 30 -22 40 -22 36 0 58 -19 58 -50 0 -16 -5
-32 -10 -35 -20 -12 -9 -58 23 -98 17 -23 33 -50 34 -62 10 -78 8 -84 -35
-121 -23 -19 -42 -42 -42 -50 0 -22 67 -18 92 6 42 39 116 14 160 -54 17 -25
32 -36 59 -40 58 -9 128 -53 143 -91 8 -18 19 -36 25 -39 7 -5 9 -22 5 -46 -6
-37 -4 -41 26 -57 18 -10 40 -26 49 -35 8 -10 23 -18 31 -18 9 0 24 -6 34 -13
15 -11 16 -17 6 -39 -10 -22 -8 -36 15 -93 14 -37 24 -73 21 -81 -3 -8 1 -17
9 -20 8 -4 15 -14 15 -24 0 -10 7 -24 16 -31 13 -11 15 -26 11 -79 -7 -86 18
-141 50 -109 16 16 48 2 61 -26 6 -14 16 -25 22 -25 6 0 35 -23 65 -51 47 -44
61 -51 109 -58 64 -9 58 -5 80 -49 14 -27 22 -33 44 -31 15 2 37 -2 49 -9 12
-7 28 -12 35 -12 7 0 40 -18 72 -40 42 -27 64 -36 72 -29 7 5 23 7 37 4 17 -5
28 -2 34 8 16 29 45 24 56 -8 5 -16 14 -36 20 -43 15 -19 82 -52 105 -52 11 0
25 -7 32 -15 11 -13 84 -15 546 -15 l533 0 6 47 c4 27 7 53 8 58 2 18 -23 55
-38 55 -8 0 -15 9 -15 20 0 11 -2 20 -5 20 -9 0 -45 -40 -45 -50 0 -13 -48
-33 -73 -32 -11 1 -25 9 -33 19 -12 17 -13 16 -14 -9 0 -33 -19 -36 -45 -8
-20 22 -55 26 -72 9 -8 -8 -17 -5 -32 10 -12 12 -24 21 -27 21 -11 0 -93 -63
-90 -69 7 -11 -19 -26 -44 -26 -35 0 -49 22 -49 75 0 41 4 67 25 153 5 20 3
27 -9 27 -8 0 -17 5 -19 12 -3 9 -11 9 -34 0 -16 -6 -38 -10 -49 -8 -11 3 -26
5 -32 5 -7 1 -13 6 -13 12 0 6 7 8 16 5 10 -4 18 0 21 13 3 11 11 22 18 25 19
7 7 44 -21 63 -18 12 -33 13 -69 5 -42 -9 -46 -8 -64 17 -16 21 -22 24 -32 14
-17 -17 -29 -16 -29 2 0 20 -17 19 -29 -2 -6 -10 -11 -12 -11 -5 0 6 -9 12
-20 12 -11 0 -19 -6 -18 -12 2 -8 -10 -14 -29 -16 -39 -4 -40 -1 -11 39 18 24
20 33 11 48 -12 19 -6 74 7 66 5 -3 6 4 3 16 -5 16 -11 19 -31 14 -22 -5 -24
-4 -18 20 4 14 16 35 27 46 26 26 20 41 -18 52 -22 7 -36 21 -52 53 -11 25
-21 51 -21 59 0 19 -11 19 -35 1 -11 -8 -16 -19 -12 -30 4 -9 3 -15 -2 -11 -5
3 -11 0 -13 -7 -3 -9 -6 -9 -12 0 -4 7 -2 12 3 12 6 0 11 11 11 24 0 13 6 29
14 35 8 6 16 22 19 34 2 12 8 30 11 39 10 22 -29 45 -48 28 -11 -8 -15 -5 -20
15 -6 24 11 65 26 65 5 0 8 5 8 11 0 36 71 50 104 20 19 -16 126 -46 151 -41
6 1 13 1 18 0 11 -4 26 -7 37 -9 5 0 7 -8 3 -17 -10 -28 23 -45 54 -29 14 8
30 19 34 27 4 7 12 9 16 4 4 -5 2 -11 -5 -13 -20 -8 -14 -48 13 -73 21 -20 25
-21 31 -6 3 9 12 16 20 16 17 0 54 -31 54 -44 0 -5 14 -21 31 -35 l31 -26 -22
-42 c-16 -31 -20 -51 -15 -73 8 -38 -10 -66 -32 -49 -10 9 -17 9 -25 1 -7 -7
-25 -12 -42 -12 -28 0 -28 -1 -13 -18 20 -22 22 -39 4 -45 -24 -8 14 -37 47
-36 17 0 63 -3 102 -7 81 -8 96 1 69 42 -18 28 -13 76 8 73 27 -3 37 2 37 18
0 13 3 14 12 5 18 -18 38 -15 38 6 0 9 9 23 20 30 12 7 19 16 16 21 -3 4 8 18
24 30 19 14 30 30 30 47 0 13 6 27 14 30 16 6 56 77 56 99 0 23 20 28 40 10
16 -15 22 -15 35 -5 8 7 15 22 15 34 0 13 3 16 8 9 8 -13 62 -6 62 8 0 5 -5 9
-11 9 -8 0 -8 4 -2 13 5 6 7 23 3 37 -5 18 -12 24 -28 23 -13 -2 -27 5 -34 17
-7 11 -16 20 -20 20 -13 0 -9 -28 4 -32 6 -2 9 -12 5 -21 -5 -14 -15 -16 -54
-10 -26 3 -53 13 -59 21 -6 8 -16 12 -22 8 -19 -12 -14 1 20 49 18 25 48 55
66 66 32 18 36 18 58 4 13 -8 36 -15 52 -15 35 0 56 -22 49 -50 -6 -23 4 -33
26 -24 29 11 28 74 0 74 -9 0 -13 3 -10 6 3 4 2 15 -3 24 -7 13 -6 20 5 24 9
3 12 12 9 23 -4 11 -3 14 3 6 14 -20 123 -13 144 8 11 11 33 19 50 19 57 0
179 -36 179 -53 0 -10 -84 4 -91 16 -10 15 -39 0 -39 -19 0 -11 6 -15 20 -11
11 3 20 1 20 -4 0 -5 -7 -9 -15 -9 -9 0 -25 -9 -37 -19 -17 -17 -30 -19 -89
-14 -45 4 -69 2 -69 -4 0 -11 43 -22 115 -29 22 -2 41 -8 43 -14 2 -5 10 -10
17 -10 8 0 11 -7 9 -17 -3 -12 3 -22 18 -28 18 -8 23 -18 23 -49 0 -25 5 -41
14 -44 8 -3 27 -18 44 -33 21 -20 34 -26 42 -19 6 5 15 6 19 2 4 -4 11 -7 14
-7 4 -1 28 -10 53 -22 37 -16 50 -29 60 -57 7 -20 19 -36 26 -36 7 0 13 -5 13
-11 0 -5 4 -8 9 -4 6 3 15 -4 21 -16 10 -17 8 -23 -7 -35 -17 -13 -17 -14 4
-20 19 -5 21 -9 12 -26 -6 -12 -17 -17 -25 -14 -9 3 -24 1 -34 -4 -13 -7 -21
-7 -25 0 -3 5 -15 10 -26 10 -11 0 -24 11 -30 24 -13 27 -33 25 -59 -6 -14
-17 -17 -17 -45 -2 -16 8 -37 13 -47 11 -9 -3 -25 1 -34 8 -42 30 -73 -17 -37
-57 13 -14 14 -21 5 -30 -7 -7 -12 -24 -12 -39 0 -15 -3 -34 -6 -43 -5 -14 -8
-14 -27 -1 -19 13 -22 12 -37 -13 -15 -24 -16 -30 -3 -55 12 -23 12 -31 1 -45
-7 -9 -13 -18 -14 -20 -1 -2 -14 9 -28 23 -33 32 -43 26 -51 -29 -7 -44 -7
-44 -33 -30 -15 8 -31 14 -36 14 -12 0 4 -138 22 -179 9 -20 15 -39 14 -43 -1
-4 7 -10 18 -13 19 -6 19 -8 5 -36 -9 -16 -11 -29 -6 -29 5 0 11 7 15 15 3 8
12 15 20 15 9 0 23 11 32 25 19 29 33 30 89 9 40 -15 98 -32 145 -40 34 -7 38
-14 9 -14 -21 -1 -22 -2 -6 -11 9 -5 17 -17 17 -24 0 -10 11 -15 32 -15 23 0
38 -8 53 -26 l21 -26 14 27 c12 23 12 28 0 36 -8 5 -27 7 -42 5 -16 -3 -28 0
-31 7 -7 22 17 80 35 85 10 2 18 8 18 12 0 4 18 2 40 -3 22 -6 40 -15 40 -19
0 -4 9 -17 21 -29 21 -21 21 -21 1 -39 -12 -12 -23 -15 -29 -9 -6 6 -10 -8
-11 -38 -2 -36 -7 -52 -22 -62 -33 -22 -23 -31 34 -31 58 0 66 7 66 60 0 16
-7 30 -16 34 -15 6 -15 8 1 32 9 14 14 31 12 39 -4 8 3 13 18 13 14 0 25 -8
28 -19 3 -12 11 -16 26 -12 12 3 21 1 21 -6 0 -6 11 -11 24 -11 21 0 24 6 28
40 3 34 1 40 -16 40 -14 0 -17 3 -9 11 7 7 23 3 54 -15 46 -25 79 -21 79 9 0
9 6 12 15 9 11 -5 15 1 15 20 0 32 9 33 45 4 15 -12 43 -29 61 -39 29 -14 34
-15 34 -2 0 11 6 8 21 -8 15 -17 19 -19 15 -6 -7 22 17 23 34 1 10 -11 23 -14
51 -9 32 6 40 3 53 -18 15 -22 55 -47 77 -47 5 0 7 16 3 39 -4 22 -2 41 4 45
6 3 8 -1 5 -12 -2 -10 5 -28 16 -41 12 -13 21 -30 21 -36 0 -7 7 -18 15 -25 8
-7 15 -20 15 -30 0 -10 7 -20 15 -24 8 -3 15 -12 15 -21 0 -27 96 -17 123 12
24 24 47 29 63 13 7 -7 15 -2 25 17 8 16 22 37 32 47 19 22 15 48 -13 78 -10
11 -20 33 -24 49 -3 17 -12 29 -21 29 -9 0 -15 7 -13 15 2 9 -8 21 -21 28 -14
6 -28 25 -32 41 -7 24 -5 27 11 23 27 -7 32 17 8 37 -11 10 -17 24 -14 32 4
12 1 14 -14 9 -14 -4 -22 -1 -26 10 -6 13 -9 14 -15 3 -12 -18 -29 7 -29 43 0
14 -3 29 -6 32 -11 11 -44 -13 -44 -31 -1 -15 -2 -16 -13 -1 -7 10 -25 15 -45
14 -21 -1 -32 3 -32 11 0 7 -8 18 -18 23 -10 5 -27 28 -38 50 -10 23 -24 41
-30 41 -25 0 -84 74 -84 105 0 8 -7 15 -15 15 -10 0 -3 12 19 33 42 40 56 67
56 108 0 26 3 31 20 26 22 -6 28 8 8 16 -10 4 -10 8 2 16 8 5 17 8 21 5 11 -6
49 83 49 113 0 33 -17 63 -53 94 -28 24 -30 27 -19 59 16 43 15 50 -3 50 -19
0 -19 19 0 26 8 4 15 12 15 20 0 17 25 7 134 -55 67 -39 79 -43 87 -29 5 9 19
18 32 22 26 6 48 44 53 91 3 22 1 26 -6 15 -18 -28 -23 1 -7 35 23 48 21 67
-2 29 -28 -45 -35 -47 -56 -12 -17 29 -19 30 -26 12 -4 -10 -8 -13 -8 -5 -1 7
-7 11 -15 8 -11 -5 -11 0 1 24 8 17 12 33 9 36 -3 3 -9 -3 -13 -13 -13 -36
-93 -93 -128 -93 -13 0 -5 7 23 21 56 27 126 111 77 92 -8 -4 -15 -1 -15 5 0
6 -7 11 -15 11 -9 0 -18 7 -21 15 -13 32 -23 12 -26 -47 -2 -52 -6 -63 -22
-66 -11 -3 -16 0 -12 7 4 6 0 11 -8 11 -9 0 -16 4 -16 9 0 5 -12 12 -27 16
-27 6 -27 7 -8 23 11 9 31 30 45 47 21 25 18 23 -18 -8 -23 -20 -45 -37 -49
-37 -12 0 -103 62 -103 71 0 4 -16 1 -36 -7 -40 -17 -58 -12 -25 6 29 15 26
22 -19 44 -22 11 -40 25 -40 32 0 8 -6 11 -15 8 -24 -10 -17 5 25 53 22 25 40
51 40 57 0 6 -11 -6 -25 -27 -14 -20 -38 -43 -53 -51 -25 -13 -31 -11 -89 29
-35 23 -60 45 -55 49 4 5 -10 -2 -30 -14 -21 -12 -43 -20 -50 -17 -7 2 6 14
30 26 45 23 54 32 22 24 -12 -3 -33 5 -54 21 -19 14 -39 26 -45 26 -6 0 -11 5
-11 10 0 6 -3 9 -7 9 -29 -5 -28 6 2 38 19 20 43 56 52 80 10 24 23 41 30 39
6 -3 13 0 15 6 2 5 76 -37 163 -94 88 -57 199 -130 248 -161 48 -32 87 -61 87
-65 0 -5 11 -14 23 -19 21 -10 34 -43 18 -43 -3 0 -6 -11 -6 -24 0 -13 3 -22
7 -20 3 2 8 1 11 -3 2 -5 2 -3 1 4 -1 6 0 23 4 37 l7 26 53 -35 c30 -19 58
-35 63 -35 5 0 9 -4 9 -8 0 -4 22 -19 50 -33 27 -13 50 -27 50 -31 0 -5 6 -8
14 -8 7 0 19 -7 26 -15 7 -9 19 -14 27 -11 8 3 11 2 8 -4 -3 -5 4 -14 15 -20
16 -9 22 -8 26 5 9 22 34 19 34 -4 0 -11 -4 -21 -9 -23 -4 -1 -11 -14 -15 -28
-6 -21 -5 -22 4 -7 12 18 40 24 40 7 0 -5 5 -10 10 -10 6 0 9 3 9 8 -5 27 3
62 11 57 6 -4 9 -25 6 -49 -4 -35 -2 -42 13 -43 16 -1 23 28 10 42 -3 3 -4 18
-1 34 3 20 9 28 18 24 8 -3 12 -9 9 -13 -3 -5 -1 -11 4 -14 5 -4 11 2 13 11 4
22 -37 57 -54 47 -7 -4 -10 -3 -5 1 4 5 0 17 -10 27 -19 21 -5 24 22 4 11 -8
26 -12 35 -9 10 3 11 2 3 -4 -6 -4 19 -9 60 -10 47 -2 67 1 57 7 -12 7 -10 11
10 19 24 9 24 10 -10 12 l-35 1 37 8 c61 11 102 62 62 77 -8 3 -13 11 -10 18
2 7 -10 26 -27 42 -31 28 -128 136 -171 190 -28 37 4 16 124 -80 19 -15 40
-31 46 -36 6 -5 37 -26 70 -47 32 -21 62 -43 66 -49 5 -6 8 -6 8 2 0 6 -4 15
-10 18 -15 9 -12 25 4 25 8 0 16 -8 18 -17 3 -15 8 -13 34 12 l31 28 -96 96
c-79 79 -270 254 -416 382 -16 14 -73 64 -125 110 -53 46 -119 104 -148 129
-38 32 -52 50 -48 63 2 11 2 16 -1 13 -8 -7 -103 44 -103 56 0 5 -4 6 -10 3
-5 -3 -10 1 -10 9 0 9 -6 16 -12 16 -7 0 -44 27 -83 60 -38 32 -71 57 -74 55
-5 -5 41 -55 52 -55 4 0 22 -15 40 -34 17 -18 39 -36 47 -39 13 -5 13 -5 0 -6
-8 0 -44 24 -79 54 -35 30 -68 52 -73 49 -4 -3 -6 -10 -2 -15 3 -5 10 -7 15
-4 5 4 9 -1 9 -10 0 -8 8 -19 18 -22 9 -4 23 -15 30 -25 7 -10 18 -16 23 -13
5 4 9 1 9 -6 0 -6 8 -18 18 -25 14 -11 15 -15 3 -23 -8 -5 -12 -18 -8 -31 6
-22 6 -22 -16 -3 -80 71 -145 123 -153 123 -11 -1 -58 -39 -53 -43 77 -58 193
-157 181 -157 -4 0 -20 13 -37 28 -67 61 -154 124 -165 117 -8 -5 -4 -15 12
-33 l23 -26 -33 27 c-19 15 -41 27 -50 27 -10 0 -13 -3 -7 -8 17 -12 15 -28
-4 -28 -33 0 -18 27 33 61 28 18 75 58 105 88 46 48 52 58 41 71 -12 15 -11
30 5 69 6 14 2 17 -20 17 -17 0 -24 4 -19 12 5 8 2 9 -9 5 -18 -7 -47 17 -47
39 0 8 -4 14 -10 14 -5 0 -10 8 -10 18 0 9 -14 25 -31 34 -17 10 -27 22 -24
28 3 5 -1 10 -9 10 -9 0 -16 6 -16 13 0 8 -3 7 -9 -3 -6 -8 -7 -18 -5 -22 3
-4 1 -8 -5 -8 -15 0 -19 23 -7 42 8 14 6 21 -9 33 -17 12 -18 16 -6 24 12 8
12 14 2 39 -7 17 -10 36 -6 42 5 9 1 10 -14 5 -15 -4 -21 -2 -21 9 0 8 -9 18
-20 21 -11 3 -20 11 -20 16 0 6 -4 8 -8 5 -5 -3 -16 4 -26 15 -14 16 -20 18
-32 9 -11 -10 -14 -9 -14 4 0 11 5 14 12 10 8 -5 9 -2 5 9 -3 10 -3 17 1 17 4
0 8 10 9 21 1 13 -13 -5 -35 -42 -37 -63 -170 -214 -180 -204 -3 3 4 12 15 20
33 23 136 164 157 215 10 25 25 59 32 75 7 17 15 44 18 60 6 29 6 29 -5 5 -7
-14 -18 -41 -27 -60 -8 -19 -21 -43 -29 -52 -8 -9 -12 -22 -8 -27 3 -6 -1 -11
-9 -11 -20 0 -20 10 0 38 8 12 19 35 24 50 4 15 11 35 15 45 4 9 3 17 -3 17
-5 0 -13 -16 -16 -36 -7 -36 -7 -36 -25 -15 -22 25 -31 27 -31 6 0 -8 -7 -15
-16 -15 -10 0 -13 6 -9 18 3 11 -1 32 -10 48 -8 16 -15 36 -16 44 0 8 -5 4
-10 -10 -23 -57 -98 -160 -117 -160 -3 0 -2 3 1 7 4 3 1 13 -6 21 -10 13 -9
15 6 9 9 -3 17 -2 17 4 0 6 -9 13 -20 16 -24 6 -25 12 -6 27 8 6 17 33 21 60
6 46 6 49 -10 36 -9 -8 -31 -13 -47 -12 -26 2 -29 0 -19 -11 9 -12 6 -18 -13
-31 l-25 -16 5 53 c4 39 3 48 -5 37 -9 -13 -12 -12 -17 8 -4 13 -14 22 -25 22
-14 0 -22 12 -31 45 -10 38 -16 45 -38 45 -19 1 -21 3 -10 9 14 8 16 30 12 97
-2 23 -38 39 -46 20 -2 -6 -5 -3 -5 7 -1 10 -8 25 -16 34 -8 8 -13 19 -10 23
3 5 -4 14 -16 20 -17 10 -20 9 -13 -2 6 -11 5 -11 -9 1 -20 15 -22 38 -6 43 9
3 9 10 0 27 -7 13 -11 32 -8 42 3 12 0 19 -9 19 -8 0 -13 -3 -12 -7 3 -13 -13
-53 -22 -53 -11 0 -21 30 -14 41 3 5 -2 9 -11 9 -12 0 -15 5 -11 16 4 11 -1
22 -12 30 -16 11 -21 32 -26 104 -6 73 -11 93 -26 102 -14 9 -16 16 -9 25 13
15 -9 73 -28 73 -7 0 -13 9 -13 20 0 31 -20 67 -46 81 -13 7 -22 15 -19 17 3
3 1 10 -5 16 -5 7 -5 17 -1 24 7 12 79 -12 281 -93 19 -8 46 -17 60 -20 51
-13 136 -50 177 -78 23 -15 50 -30 60 -32 10 -3 50 -14 88 -26 39 -11 92 -27
119 -35 27 -7 56 -20 65 -27 19 -16 85 -47 100 -47 6 0 11 7 11 16 0 10 -6 14
-14 11 -8 -3 -23 3 -34 13 -11 10 -22 17 -25 14 -3 -3 -20 4 -38 15 -19 12
-46 21 -60 21 -15 0 -32 7 -39 15 -7 8 -27 15 -46 15 -32 0 -46 11 -50 38 -3
16 -1 16 41 -8 44 -25 45 -25 45 2 l0 21 23 -21 c13 -12 28 -22 34 -22 7 0 15
-9 18 -20 7 -23 25 -27 25 -5 0 8 -11 22 -25 31 -28 18 -33 34 -10 34 8 0 15
5 15 10 0 6 -18 10 -40 10 -33 0 -40 3 -40 20 0 17 7 20 40 20 47 0 49 5 15
32 -14 11 -25 26 -25 33 0 9 -6 12 -15 9 -8 -4 -15 -1 -15 5 0 6 6 11 13 11 8
0 7 4 -3 10 -13 8 -13 10 1 10 34 0 77 -22 100 -53 13 -18 23 -35 22 -39 -1
-3 16 -4 39 0 28 3 39 2 35 -6 -5 -6 0 -8 13 -5 16 4 19 2 15 -13 -4 -12 -1
-11 6 4 7 12 19 22 27 22 10 0 4 10 -16 26 -17 15 -29 31 -26 35 3 5 10 7 15
4 5 -4 9 -1 9 5 0 7 9 9 23 5 20 -5 19 -4 -6 16 -19 14 -26 27 -22 40 5 14 -1
20 -27 28 -32 9 -32 9 -5 10 36 1 35 21 -2 21 -17 0 -31 6 -35 16 -5 14 -1 16
29 11 20 -3 49 -13 65 -21 24 -12 30 -12 30 -1 0 7 -6 15 -12 18 -7 2 -10 8
-6 12 8 9 38 -18 38 -34 0 -18 58 -13 69 7 9 14 10 13 11 -10 0 -16 5 -28 10
-28 6 0 10 7 10 16 0 12 7 15 30 12 18 -3 30 0 30 7 0 12 -36 45 -50 45 -6 0
-10 6 -10 13 0 9 -3 8 -9 -2 -5 -7 -14 -10 -20 -7 -15 10 -14 46 2 47 6 1 -6
7 -28 14 -22 8 -34 14 -27 14 6 1 12 8 12 17 0 10 -6 14 -15 10 -9 -3 -15 0
-15 8 0 20 -70 26 -95 9 -11 -7 -19 -16 -17 -18 5 -11 1 -25 -8 -25 -5 0 -10
9 -10 19 0 11 -5 21 -11 23 -17 6 2 38 22 38 20 0 26 15 9 25 -5 3 -10 1 -10
-4 0 -17 -36 -13 -51 5 -11 13 -9 14 17 9 l29 -6 -30 25 c-23 20 -37 25 -57
20 -23 -5 -28 -2 -28 14 0 24 -41 46 -70 37 -19 -6 -22 -4 -18 13 4 16 2 19
-16 14 -16 -4 -18 -2 -10 7 7 8 52 14 114 17 111 5 155 17 103 28 -17 4 -42 4
-57 0 -22 -5 -26 -3 -26 15 0 25 -35 30 -44 6 -15 -41 -306 13 -306 57 0 6 -9
8 -20 5 -13 -3 -20 0 -20 9 0 8 -9 14 -20 14 -11 0 -20 6 -20 14 0 14 -95 56
-126 56 -8 0 -17 7 -21 16 -3 8 -12 13 -19 10 -7 -3 -17 2 -22 10 -5 8 -16 16
-26 18 -9 1 -25 10 -36 18 -10 9 -29 18 -42 21 -20 4 -19 4 6 6 24 1 27 3 16
16 -7 8 -18 15 -24 15 -6 0 -18 9 -26 20 -8 11 -25 20 -38 20 -15 0 -21 4 -16
12 5 7 2 9 -7 6 -10 -4 -14 2 -16 20 0 14 2 20 6 14 3 -6 20 -13 36 -17 l30
-6 -30 17 c-40 23 -18 29 36 9 24 -9 73 -25 109 -36 36 -11 73 -24 82 -29 10
-6 32 -10 49 -10 36 0 89 -28 89 -47 0 -25 46 -14 69 17 12 17 26 28 31 25 5
-3 14 4 20 16 8 15 18 19 33 15 12 -3 62 -8 112 -12 l89 -7 -28 27 c-17 15
-23 26 -15 26 20 0 -18 24 -66 41 -32 12 -54 13 -115 4 -65 -9 -75 -13 -75
-30 0 -16 8 -21 38 -23 20 -2 37 -8 37 -13 0 -16 -76 -4 -107 17 -59 39 -96
54 -109 44 -17 -15 -60 4 -91 40 -13 16 -33 30 -44 30 -10 0 -19 5 -19 10 0 7
-7 7 -21 0 -16 -9 -18 -14 -9 -26 7 -7 16 -12 20 -9 5 3 11 1 15 -5 8 -13 6
-13 -73 6 -73 18 -94 30 -69 39 8 4 27 -1 41 -10 23 -15 26 -16 32 -2 8 22 -3
37 -21 30 -9 -3 -15 1 -15 8 0 15 -57 45 -76 41 -21 -4 -34 23 -26 53 5 19 11
25 16 17 4 -7 4 -16 1 -22 -4 -6 10 -9 35 -8 45 1 53 7 41 27 -6 9 -11 10 -15
2 -11 -18 -26 -13 -26 9 0 13 7 20 20 20 11 0 20 5 20 10 0 6 -4 10 -9 10 -5
0 -14 14 -21 30 -7 17 -18 30 -25 30 -8 0 -15 4 -17 8 -1 5 -16 12 -33 16 -28
7 -29 7 -12 -12 35 -38 16 -31 -23 10 -24 24 -39 47 -35 56 4 10 0 12 -11 8
-22 -8 -57 12 -50 30 6 16 -2 18 -22 6 -20 -13 -4 -39 49 -77 27 -19 49 -39
49 -44 0 -4 11 -20 25 -35 25 -28 33 -70 15 -81 -6 -4 -8 -9 -6 -13 2 -4 -44
-6 -102 -4 -59 2 -123 4 -142 4 l-35 0 30 14 c17 7 42 13 56 14 28 0 39 16 39
56 0 21 -5 24 -35 24 -19 0 -35 5 -35 10 0 6 4 10 9 10 6 0 3 12 -5 28 -7 15
-14 35 -14 45 0 9 -6 17 -14 17 -8 0 -24 9 -37 20 -21 17 -21 19 -4 13 25 -8
64 -32 87 -52 51 -46 58 -56 58 -88 0 -42 16 -43 22 -2 4 23 -2 39 -21 63 -14
17 -30 34 -36 38 -26 18 -60 45 -79 61 l-21 18 25 -7 c22 -6 23 -5 11 10 -7 9
-19 15 -25 14 -16 -3 -76 31 -76 42 0 30 -24 49 -64 50 -27 0 -127 47 -134 63
-2 4 -10 7 -18 7 -8 0 -14 9 -14 20 0 19 1 19 43 1 23 -10 57 -22 75 -26 17
-3 34 -10 37 -15 5 -8 63 -40 71 -40 2 0 1 7 -2 15 -4 8 -1 15 5 15 14 0 14
27 0 35 -6 4 -13 -2 -16 -14 -7 -28 -20 -27 -19 1 1 17 -5 22 -23 23 -13 0
-26 6 -28 13 -3 6 2 12 11 12 9 0 16 6 17 13 0 6 4 3 9 -9 5 -13 16 -20 31
-19 31 2 35 21 7 28 -19 5 -23 13 -23 43 0 24 -5 39 -15 42 -13 5 -13 3 -1
-11 21 -27 8 -44 -31 -39 -32 5 -32 4 -16 -14 16 -18 15 -19 -10 -18 -15 1
-34 4 -42 7 -8 3 -26 7 -39 9 -15 2 -25 10 -27 22 -4 31 6 38 32 22 25 -17 64
-21 64 -7 0 8 -68 36 -117 48 -13 3 -23 9 -23 14 0 5 -7 9 -16 9 -10 0 -14 6
-10 15 3 9 0 15 -10 15 -11 0 -14 -5 -10 -16 5 -13 2 -15 -11 -9 -10 4 -34 9
-53 11 -19 2 -41 6 -50 10 -8 3 -25 8 -36 9 -12 2 -39 11 -59 21 -32 15 -35
19 -19 24 10 4 21 4 24 0 5 -6 31 -19 60 -28 8 -2 34 -4 57 -3 24 1 63 -3 88
-9 32 -7 52 -7 65 0 25 13 26 33 2 26 -18 -6 -49 30 -37 42 10 11 60 -26 60
-45 0 -26 24 -48 57 -49 31 -2 38 12 11 19 -14 4 -13 5 4 6 16 1 21 6 17 16
-4 9 0 15 9 15 8 0 20 -7 27 -15 7 -8 18 -15 25 -15 16 0 47 -35 38 -43 -3 -4
-1 -7 5 -7 7 0 12 7 12 15 0 10 10 15 30 15 23 0 30 -4 30 -20 0 -22 -25 -28
-33 -7 -3 6 -6 7 -6 1 -1 -5 6 -19 14 -30 14 -19 15 -18 35 6 24 31 24 31 0
58 -13 13 -33 22 -51 22 -44 0 -36 34 9 38 37 4 40 11 12 35 -25 21 -34 22
-27 3 3 -8 0 -19 -6 -24 -17 -14 -62 -19 -62 -7 0 6 3 9 7 8 5 -2 8 2 8 7 0 6
-6 10 -13 10 -8 0 -24 11 -37 25 -13 14 -30 25 -38 25 -8 0 -30 7 -49 16 -31
15 -34 20 -31 53 2 27 -1 37 -14 39 -13 3 -17 -6 -20 -40 -2 -30 -7 -43 -18
-43 -10 0 -16 13 -18 43 -3 33 -7 42 -22 42 -10 0 -23 7 -28 16 -7 13 -13 14
-30 5 -28 -15 -32 -14 -32 8 0 10 -6 23 -12 29 -17 13 -128 15 -128 2 0 -17
-30 -11 -57 10 -14 11 -32 20 -40 20 -8 0 -26 9 -40 20 -26 21 -103 28 -103
10 0 -5 16 -13 35 -19 40 -11 65 -32 65 -55 0 -19 -5 -20 -33 -4 -35 19 -110
27 -126 14 -11 -8 -15 -8 -18 2 -3 6 -19 12 -36 12 -19 0 -27 3 -20 8 7 4 -16
8 -50 9 -34 1 -53 -1 -42 -4 11 -3 29 -12 40 -19 11 -8 32 -14 47 -14 15 0 30
-4 33 -10 4 -6 -8 -10 -28 -10 -19 0 -49 -5 -67 -11 -25 -9 -34 -9 -40 1 -4 6
-10 12 -13 11 -4 0 -22 6 -41 14 -45 19 -66 19 -66 0 0 -19 -16 -20 -23 -2 -3
9 -16 12 -35 9 -24 -3 -31 0 -37 18 -6 19 -12 21 -42 15 -24 -4 -38 -2 -44 6
-6 10 -13 10 -34 1 -37 -17 -75 -15 -75 3 0 8 -9 15 -20 15 -11 0 -20 -6 -20
-14 0 -21 -33 -30 -46 -12 -6 9 -16 16 -21 16 -6 0 -16 7 -23 15 -8 10 -17 12
-29 6 -10 -6 -24 -5 -36 2 -11 7 -41 17 -67 23 -48 11 -53 8 -50 -27 2 -17
-57 7 -71 29 -9 15 -17 22 -17 15 0 -7 -7 -10 -17 -6 -14 5 6 -14 46 -44 2 -1
-2 -9 -9 -18 -9 -10 -17 -12 -30 -5 -9 5 -19 7 -22 5 -2 -3 -27 6 -55 19 -28
14 -59 23 -70 20 -10 -3 -39 2 -63 10 -25 9 -57 16 -73 16 -15 0 -35 4 -45 9
-9 4 -41 16 -71 25 -40 13 -56 15 -61 6 -5 -8 -9 -6 -14 6 -5 12 -1 23 11 33
17 13 17 13 0 7 -10 -3 -27 -1 -37 4 -13 7 -21 7 -25 0 -4 -6 -11 -8 -16 -5
-5 3 -6 -1 -3 -9 4 -11 0 -16 -11 -16 -11 0 -15 5 -12 14 6 14 -5 15 -36 1
-10 -4 -21 -5 -24 -1 -4 3 2 6 12 6 14 0 7 11 -26 40 -24 22 -49 40 -55 40 -6
0 -17 18 -24 40 -9 27 -19 40 -31 40 -10 0 -22 8 -28 18 -9 16 -10 16 -16 0
-4 -10 -11 -18 -16 -18 -12 0 -11 37 1 45 14 8 13 35 -1 35 -7 0 -17 -7 -23
-16 -9 -12 -17 -13 -39 -5 -15 6 -27 15 -27 21 0 6 -10 8 -24 4 -21 -5 -24 -3
-19 15 5 19 1 21 -36 21 -34 0 -41 3 -41 20 0 15 -7 20 -27 20 -38 0 -133 23
-133 32 0 5 -9 8 -20 8 -11 0 -23 8 -27 18 -10 29 -35 52 -57 52 -21 -1 -21
-1 2 -19 12 -11 22 -22 22 -25 0 -10 -38 -7 -45 4 -3 6 -21 10 -39 10 -36 0
-90 23 -79 33 3 4 19 7 33 7 15 0 42 3 59 6 25 5 29 9 20 20 -13 16 -59 19
-59 4 0 -7 -6 -7 -20 0 -14 8 -25 7 -39 -2 -15 -9 -23 -9 -35 2 -9 7 -18 11
-19 9 -1 -2 -9 -12 -17 -22 -7 -10 -9 -17 -4 -16 22 4 44 -2 44 -12 0 -12 -25
-6 -82 18 -50 21 -48 35 5 27 31 -4 38 -3 27 5 -8 6 -27 11 -42 11 -17 0 -28
6 -31 18 -4 13 -5 11 -6 -5 -1 -26 -26 -31 -35 -8 -3 8 -12 12 -21 9 -10 -4
-15 0 -16 12 0 16 -2 15 -9 -3 -7 -16 -18 -23 -37 -23 l-28 -1 24 -20 25 -20
-30 7 c-16 4 -30 11 -32 16 -2 4 -13 8 -24 8 -27 0 -50 24 -36 38 13 13 2 46
-13 37 -13 -9 -68 13 -96 38 -13 11 -23 17 -23 13 0 -5 -7 -3 -16 4 -8 8 -35
13 -60 13 -44 0 -60 12 -26 20 9 2 3 2 -15 0 -19 -2 -35 2 -40 9 -4 7 -28 20
-52 28 -47 16 -61 42 -33 61 14 8 12 9 -10 5 -25 -6 -27 -4 -25 23 2 27 5 29
31 24 26 -5 28 -4 21 13 -4 10 -7 26 -6 34 6 43 0 89 -14 116 -8 16 -15 37
-15 47 0 22 -34 74 -64 99 -18 15 -45 18 -203 18 l-181 0 2 -22z m-354 -252
c0 -3 -4 -8 -10 -11 -5 -3 -10 -1 -10 4 0 6 5 11 10 11 6 0 10 -2 10 -4z m455
-196 c3 -5 2 -10 -4 -10 -5 0 -13 5 -16 10 -3 6 -2 10 4 10 5 0 13 -4 16 -10z
m-270 -497 c-2 -10 -4 -20 -4 -22 -1 -3 -6 0 -12 6 -6 6 -8 16 -5 22 11 17 25
13 21 -6z m440 -73 c3 -6 -1 -7 -9 -4 -18 7 -21 14 -7 14 6 0 13 -4 16 -10z
m1426 -20 c77 -36 114 -59 114 -70 0 -6 7 -15 15 -20 11 -7 4 -9 -25 -9 -22 1
-32 3 -22 6 30 8 8 23 -26 17 -30 -5 -31 -4 -14 9 18 15 18 16 -3 27 -11 6
-29 8 -40 5 -21 -7 -100 29 -100 45 0 17 54 11 101 -10z m269 -30 c0 -5 -4
-10 -10 -10 -5 0 -10 5 -10 10 0 6 5 10 10 10 6 0 10 -4 10 -10z m176 -67
c-11 -11 -19 6 -11 24 8 17 8 17 12 0 3 -10 2 -21 -1 -24z m-984 -58 c-16 -34
-15 -37 6 -26 13 7 23 4 40 -13 23 -25 20 -36 -11 -36 -11 0 -17 3 -14 7 8 7
-39 33 -62 33 -9 0 -25 8 -36 16 -19 15 -17 15 23 9 l42 -7 0 33 c0 25 3 30
12 21 9 -9 9 -18 0 -37z m631 9 c29 -14 55 -31 59 -37 4 -7 11 -12 15 -12 5 0
22 -10 38 -22 l30 -21 -35 -9 c-19 -5 -46 -7 -60 -5 -23 5 -23 6 -5 13 19 7
19 8 -1 8 -12 1 -30 9 -41 19 -11 9 -49 31 -83 47 l-63 30 34 6 c56 10 59 10
112 -17z m289 -43 c20 -10 51 -21 68 -25 31 -6 64 -29 54 -39 -6 -6 -74 18
-125 43 -21 11 -45 20 -54 20 -8 0 -15 5 -15 10 0 16 32 12 72 -9z m-2567 -21
c3 -6 -1 -7 -9 -4 -18 7 -21 14 -7 14 6 0 13 -4 16 -10z m3212 -6 c-3 -3 -12
-4 -19 -1 -8 3 -5 6 6 6 11 1 17 -2 13 -5z m-1417 -14 c0 -5 -2 -10 -4 -10 -3
0 -8 5 -11 10 -3 6 -1 10 4 10 6 0 11 -4 11 -10z m1740 4 c0 -3 -7 -12 -15
-21 -20 -19 -32 -10 -14 11 14 15 29 21 29 10z m-1243 -10 c-3 -3 -12 -4 -19
-1 -8 3 -5 6 6 6 11 1 17 -2 13 -5z m1343 -4 c0 -5 -18 -10 -40 -10 -31 0 -40
-4 -40 -17 0 -9 -3 -14 -6 -10 -3 3 -3 15 1 26 5 17 15 21 46 21 21 0 39 -4
39 -10z m-1495 -29 c-6 -5 -25 10 -25 20 0 5 6 4 14 -3 8 -7 12 -15 11 -17z
m1275 20 c0 -6 -4 -13 -10 -16 -5 -3 -10 1 -10 9 0 9 5 16 10 16 6 0 10 -4 10
-9z m-1166 -12 c-5 -9 156 -70 167 -63 5 3 8 0 7 -6 -2 -7 35 -46 82 -87 47
-42 159 -142 250 -223 254 -226 241 -215 250 -201 4 7 20 14 36 15 16 2 39 6
52 10 15 5 31 2 47 -8 33 -22 35 -78 3 -100 -24 -17 -22 -25 12 -31 13 -3 28
-9 34 -15 5 -5 21 -10 36 -10 33 0 47 -10 59 -43 6 -16 7 -26 2 -23 -5 3 -11
-1 -15 -9 -9 -25 72 -91 154 -126 326 -136 331 -137 395 -127 167 26 433 -35
570 -130 136 -95 211 -179 245 -274 13 -37 19 -45 24 -32 4 10 3 20 -2 23 -9
6 -53 93 -49 97 1 2 54 -48 117 -110 63 -62 120 -115 127 -117 20 -7 133 -149
154 -194 13 -27 57 -77 121 -136 56 -52 112 -106 126 -121 14 -15 29 -25 35
-21 6 3 7 1 3 -5 -8 -13 17 -56 26 -46 3 3 9 0 14 -7 4 -8 3 -10 -4 -5 -15 9
-15 7 2 -43 8 -22 18 -67 21 -98 23 -197 -123 -431 -320 -516 -41 -17 -39 -16
49 41 32 21 52 41 52 52 0 11 -2 17 -4 15 -3 -2 -13 0 -24 6 -14 8 -25 5 -46
-9 -42 -30 -113 -64 -120 -58 -3 3 -1 6 4 6 6 0 32 14 58 30 43 27 46 33 34
48 -12 15 -11 16 5 3 16 -13 21 -12 40 9 12 13 15 19 7 13 -9 -6 -23 -7 -35
-2 -13 5 -15 8 -5 8 8 1 0 10 -18 21 -18 11 -38 18 -44 14 -6 -4 -6 1 1 15 10
18 9 20 -6 14 -10 -3 -27 -12 -38 -20 -36 -24 -40 -13 -5 16 33 27 34 28 12
35 -12 4 -27 4 -34 0 -7 -4 4 11 25 34 40 45 45 54 24 46 -8 -3 -20 2 -27 10
-7 9 -17 13 -23 9 -5 -3 -7 -2 -4 3 3 6 2 16 -4 24 -7 12 -9 9 -9 -10 -1 -21
-2 -23 -11 -8 -7 13 -1 29 27 70 l37 53 -54 -59 c-53 -59 -162 -146 -181 -146
-6 0 19 23 56 51 65 50 89 76 42 46 -18 -12 -26 -13 -35 -4 -9 9 -11 7 -6 -8
6 -16 5 -17 -4 -5 -7 11 -6 19 6 32 14 16 14 17 -5 13 -19 -3 -80 42 -241 183
-29 26 -62 54 -71 62 -17 13 -16 17 22 59 59 67 161 231 144 231 -2 0 -20 -27
-40 -59 -54 -88 -117 -162 -172 -201 -27 -19 -42 -26 -34 -15 14 17 13 18 -3
12 -16 -6 -16 -3 3 24 32 44 19 46 -35 5 -46 -36 -65 -39 -65 -11 0 17 -36 39
-50 30 -5 -3 -13 2 -18 11 -5 9 -13 16 -18 16 -5 0 -17 6 -26 13 -16 11 -12
17 42 58 l59 47 27 -25 c36 -33 45 -22 11 13 -20 19 -31 24 -41 17 -8 -6 -46
-32 -86 -59 l-71 -48 -27 24 c-75 69 -111 99 -147 126 -61 44 -137 129 -194
217 -28 43 -51 82 -51 86 0 4 17 17 38 30 34 21 35 23 15 27 -13 2 -23 7 -23
11 0 5 -17 26 -37 48 -21 21 -64 68 -97 104 -32 35 -101 107 -152 161 -58 59
-94 104 -94 117 0 12 -3 21 -7 21 -5 1 -34 25 -66 55 l-58 54 6 45 c4 25 11
46 16 46 19 0 7 16 -31 43 -22 16 -44 26 -49 23 -5 -3 -11 0 -14 8 -5 11 -87
29 -87 18 0 -16 32 -72 47 -81 17 -11 17 -12 -2 -26 -11 -9 -21 -20 -21 -25
-1 -6 -2 -13 -3 -16 0 -4 -9 0 -18 7 -10 8 -3 -3 15 -24 26 -31 30 -42 22 -57
-12 -22 -41 -40 -64 -40 -22 0 -41 66 -24 87 7 10 8 14 1 10 -6 -4 -18 -4 -27
-1 -13 5 -14 9 -5 20 9 11 8 14 -5 14 -12 0 -16 9 -16 33 0 39 30 73 56 63 12
-5 15 -2 10 10 -3 8 -6 21 -6 26 0 6 -3 8 -6 5 -4 -3 -18 3 -32 13 -13 11 -31
20 -39 20 -8 0 -13 5 -11 12 7 19 -98 99 -119 91 -16 -6 -17 -5 -3 12 11 14
12 19 2 22 -6 3 -10 9 -7 14 4 5 0 6 -7 4 -8 -3 -23 2 -33 12 -23 21 -139 119
-174 148 -28 23 -111 98 -153 138 -23 22 -33 25 -48 17 -23 -12 -31 -13 -27
-1 1 4 -32 46 -73 91 -41 46 -75 89 -74 97 3 56 4 58 28 58 13 0 22 -3 20 -6z
m1226 2 c0 -5 3 -16 6 -25 10 -25 -19 -18 -39 9 -18 25 -18 25 8 25 14 0 25
-4 25 -9z m1054 3 c13 -5 14 -9 5 -20 -9 -11 -8 -14 5 -14 10 0 14 -4 11 -10
-11 -18 -35 -11 -35 10 0 11 -5 20 -11 20 -5 0 -7 5 -4 10 7 12 8 12 29 4z
m-640 -25 c3 0 16 -4 28 -9 23 -9 23 -9 -2 -9 -15 -1 -32 5 -38 11 -10 10 -15
10 -22 -2 -5 -8 -10 -10 -10 -4 0 17 23 35 31 23 3 -6 9 -10 13 -10z m579 14
c-7 -2 -19 -2 -25 0 -7 3 -2 5 12 5 14 0 19 -2 13 -5z m-2273 -13 c0 -5 -2
-10 -4 -10 -3 0 -8 5 -11 10 -3 6 -1 10 4 10 6 0 11 -4 11 -10z m1600 0 c0 -5
-7 -10 -15 -10 -8 0 -15 5 -15 10 0 6 7 10 15 10 8 0 15 -4 15 -10z m-82 -17
c-10 -2 -28 -2 -40 0 -13 2 -5 4 17 4 22 1 32 -1 23 -4z m263 -36 c20 -5 27
-27 9 -27 -20 0 -80 29 -80 39 0 14 44 18 48 5 2 -7 12 -14 23 -17z m619 13
c0 -5 -4 -10 -10 -10 -5 0 -10 5 -10 10 0 6 5 10 10 10 6 0 10 -4 10 -10z
m-80 -20 c0 -5 -9 -10 -20 -10 -11 0 -20 5 -20 10 0 6 9 10 20 10 11 0 20 -4
20 -10z m147 -28 c2 -47 -14 -49 -19 -2 -2 25 0 39 7 37 5 -2 11 -18 12 -35z
m-2497 3 c5 3 11 1 14 -4 4 -5 -2 -8 -11 -7 -9 2 -18 8 -19 15 -1 6 0 7 3 1 2
-5 9 -8 13 -5z m2442 3 c22 -17 13 -70 -11 -66 -9 2 -16 10 -17 18 -2 27 -4
29 -35 20 -23 -7 -37 -6 -51 4 -26 19 -7 30 37 22 19 -4 36 -2 40 4 8 13 18
13 37 -2z m-496 -21 c3 -3 4 -12 2 -20 -3 -13 -8 -13 -41 3 -21 10 -48 21 -60
24 -12 2 4 4 35 2 32 -1 61 -5 64 -9z m575 -63 c12 -14 11 -16 -5 -13 -11 2
-21 10 -24 17 -5 17 13 15 29 -4z m-1233 -3 c9 -5 26 -13 37 -16 11 -4 15 -9
8 -12 -6 -2 -29 5 -50 16 -21 11 -32 20 -25 21 7 0 20 -4 30 -9z m996 -10 c3
-4 -6 -6 -19 -3 -14 2 -25 6 -25 8 0 8 39 4 44 -5z m76 -13 c0 -11 -28 -10
-35 1 -3 6 4 9 15 8 11 -1 20 -5 20 -9z m76 -37 c-5 -8 -56 -3 -56 5 0 2 14 4
31 4 16 0 28 -4 25 -9z m231 -13 c-3 -8 -6 -5 -6 6 -1 11 2 17 5 13 3 -3 4
-12 1 -19z m-32 -8 c3 -5 1 -10 -4 -10 -6 0 -11 5 -11 10 0 6 2 10 4 10 3 0 8
-4 11 -10z m-395 -118 c0 -2 -15 -1 -32 3 -38 8 -61 25 -35 25 9 0 17 4 17 10
0 5 11 0 25 -12 14 -12 25 -23 25 -26z m-3891 -31 c9 -16 8 -18 -9 -14 -21 5
-25 15 -13 26 9 10 11 9 22 -12z m107 -28 c-10 -10 -19 5 -10 18 6 11 8 11 12
0 2 -7 1 -15 -2 -18z m4114 7 c8 -5 11 -10 5 -10 -5 0 -17 5 -25 10 -8 5 -10
10 -5 10 6 0 17 -5 25 -10z m-90 -14 c0 -3 -4 -8 -10 -11 -5 -3 -10 -1 -10 4
0 6 5 11 10 11 6 0 10 -2 10 -4z m80 -26 c0 -5 -7 -10 -15 -10 -8 0 -15 5 -15
10 0 6 7 10 15 10 8 0 15 -4 15 -10z m-4693 -216 c-3 -3 -12 -4 -19 -1 -8 3
-5 6 6 6 11 1 17 -2 13 -5z m873 -34 c0 -5 -14 -10 -31 -10 -17 0 -28 4 -24
10 3 6 17 10 31 10 13 0 24 -4 24 -10z m-50 -24 c0 -3 -4 -8 -10 -11 -5 -3
-10 -1 -10 4 0 6 5 11 10 11 6 0 10 -2 10 -4z m3740 -36 c0 -13 -11 -13 -30 0
-12 8 -11 10 8 10 12 0 22 -4 22 -10z m-3914 -16 c56 -19 78 -34 48 -34 -33 0
-115 31 -108 41 7 11 2 12 60 -7z m4034 -20 l25 -15 -25 7 c-14 3 -29 10 -34
15 -16 14 6 10 34 -7z m-4660 -14 c0 -5 -7 -10 -15 -10 -8 0 -15 5 -15 10 0 6
7 10 15 10 8 0 15 -4 15 -10z m4725 0 c-3 -5 -10 -10 -16 -10 -5 0 -9 5 -9 10
0 6 7 10 16 10 8 0 12 -4 9 -10z m-4656 -51 c-13 -9 -28 -15 -33 -12 -5 3 2
14 15 24 13 9 28 15 33 12 5 -3 -2 -14 -15 -24z m5241 -4 c0 -14 -4 -25 -10
-25 -11 0 -14 33 -3 43 11 11 13 8 13 -18z m-5290 -11 c0 -19 -60 -75 -73 -67
-5 3 8 23 29 44 45 44 44 44 44 23z m5059 3 c15 -19 4 -27 -40 -27 -43 0 -91
18 -83 31 9 15 110 10 123 -4z m-242 -13 c-3 -3 -12 -4 -19 -1 -8 3 -5 6 6 6
11 1 17 -2 13 -5z m197 -89 c-4 -8 -8 -15 -10 -15 -2 0 -4 7 -4 15 0 8 4 15
10 15 5 0 7 -7 4 -15z m67 -6 l-24 -10 39 -35 c21 -20 40 -31 42 -25 6 18 23
13 48 -14 13 -14 21 -25 18 -25 -3 0 -2 -5 1 -10 5 -7 11 -8 19 -1 7 6 17 6
26 1 18 -11 13 -16 -21 -25 -19 -5 -33 1 -59 24 -19 17 -43 31 -52 31 -10 0
-32 8 -50 18 -18 10 -38 17 -45 15 -19 -7 -25 17 -6 24 10 4 24 15 31 25 7 10
23 18 35 17 21 0 21 -1 -2 -10z m-91 -9 c0 -5 -7 -10 -15 -10 -8 0 -15 5 -15
10 0 6 7 10 15 10 8 0 15 -4 15 -10z m170 -1 c0 -6 7 -9 15 -5 8 3 22 -3 31
-12 17 -16 17 -17 0 -20 -9 -2 -23 1 -31 8 -9 8 -14 8 -17 0 -2 -8 -13 -7 -36
3 -25 10 -29 16 -20 25 15 15 58 16 58 1z m110 3 c0 -13 -12 -22 -22 -16 -10
6 -1 24 13 24 5 0 9 -4 9 -8z m70 -35 c11 -5 -30 -3 -48 2 -2 1 0 6 3 11 4 7
11 7 18 2 7 -5 19 -12 27 -15z m-249 -64 c13 -17 13 -17 -6 -3 -11 8 -22 16
-24 17 -2 2 0 3 6 3 6 0 17 -8 24 -17z m-4721 -14 c0 -5 -4 -9 -10 -9 -5 0
-10 7 -10 16 0 8 5 12 10 9 6 -3 10 -10 10 -16z m4825 -32 c36 -18 63 -36 59
-40 -6 -6 -104 39 -114 53 -3 4 -12 10 -20 13 -8 3 -10 6 -3 6 7 1 42 -14 78
-32z m340 13 c-3 -5 -12 -7 -20 -3 -21 7 -19 13 6 13 11 0 18 -4 14 -10z
m-5085 -21 c0 -5 -7 -9 -15 -9 -15 0 -20 12 -9 23 8 8 24 -1 24 -14z m4849 -7
c-16 -11 -22 -11 -38 0 -17 12 -15 13 19 13 34 0 36 -1 19 -13z m-4530 -48
c-13 -13 -14 -10 -11 23 5 35 6 36 15 15 8 -17 7 -26 -4 -38z m-104 6 c3 -5 1
-10 -4 -10 -6 0 -11 5 -11 10 0 6 2 10 4 10 3 0 8 -4 11 -10z m71 -15 c1 -14
-2 -25 -7 -25 -5 0 -9 5 -9 10 0 6 -10 11 -22 11 -21 1 -21 2 -3 6 11 3 24 9
30 14 5 5 9 9 10 9 0 0 1 -11 1 -25z m83 2 c-2 -1 -15 -11 -29 -22 l-25 -20
19 23 c11 12 24 22 29 22 6 0 8 -1 6 -3z m251 -62 c10 -12 10 -15 -4 -15 -9 0
-16 7 -16 15 0 8 2 15 4 15 2 0 9 -7 16 -15z m1415 -16 c-16 -5 -55 -14 -85
-20 -30 -5 -68 -13 -85 -16 -66 -12 -13 9 66 26 91 21 161 27 104 10z m-101
-95 c23 -9 20 -23 -4 -17 -11 3 -20 9 -20 14 0 11 3 11 24 3z m126 -171 c0
-10 -4 -14 -8 -8 -4 6 -11 13 -16 18 -5 4 -2 7 7 7 10 0 17 -8 17 -17z m60
-33 c0 -5 -4 -10 -10 -10 -5 0 -10 5 -10 10 0 6 5 10 10 10 6 0 10 -4 10 -10z
m3300 -11 c0 -5 -4 -9 -10 -9 -5 0 -10 7 -10 16 0 8 5 12 10 9 6 -3 10 -10 10
-16z m161 -274 c11 -4 19 -2 19 4 0 6 9 11 20 11 21 0 29 -20 8 -20 -16 -1 7
-15 40 -24 13 -5 22 -3 22 3 0 6 -9 11 -21 11 -11 0 -17 5 -14 10 4 7 12 7 24
0 10 -5 21 -6 25 -2 4 3 11 0 16 -8 7 -11 4 -17 -8 -21 -14 -6 -12 -9 11 -18
34 -13 35 -20 2 -13 -15 2 -25 0 -25 -7 0 -6 -9 -11 -21 -11 -15 0 -19 4 -15
16 4 12 2 15 -9 10 -8 -3 -15 -2 -15 2 0 14 -56 32 -119 38 -38 4 -65 12 -68
21 -3 7 -11 13 -19 13 -8 0 -14 4 -14 9 0 8 114 -9 161 -24z m9 15 c0 -5 -7
-7 -15 -4 -8 4 -15 8 -15 10 0 2 7 4 15 4 8 0 15 -4 15 -10z m255 -80 c-3 -5
-13 -10 -21 -10 -8 0 -14 5 -14 10 0 6 9 10 21 10 11 0 17 -4 14 -10z m-3965
-44 c0 -2 -11 -6 -25 -8 -14 -3 -25 -1 -25 3 0 5 11 9 25 9 14 0 25 -2 25 -4z
m3790 -11 c0 -8 -4 -15 -9 -15 -13 0 -22 16 -14 24 11 11 23 6 23 -9z m-910
-25 c0 -5 -2 -10 -4 -10 -3 0 -8 5 -11 10 -3 6 -1 10 4 10 6 0 11 -4 11 -10z
m1052 -42 c-11 -11 -72 -1 -72 11 0 3 18 5 41 3 27 -3 37 -8 31 -14z m-2197
-28 c-6 -9 -70 -30 -90 -29 -11 0 74 37 88 38 5 1 6 -3 2 -9z m2218 -7 c-7 -2
-19 -2 -25 0 -7 3 -2 5 12 5 14 0 19 -2 13 -5z m-3756 -9 c-3 -3 -12 -4 -19
-1 -8 3 -5 6 6 6 11 1 17 -2 13 -5z m-4 -41 c-7 -2 -19 -2 -25 0 -7 3 -2 5 12
5 14 0 19 -2 13 -5z m57 -3 c0 -5 -2 -10 -4 -10 -3 0 -8 5 -11 10 -3 6 -1 10
4 10 6 0 11 -4 11 -10z m3496 -27 c-6 -6 -36 9 -36 18 0 5 9 4 20 -3 10 -7 18
-14 16 -15z m-763 2 c-3 -9 -8 -14 -10 -11 -3 3 -2 9 2 15 9 16 15 13 8 -4z
m-19 -40 c5 -22 4 -26 -4 -15 -5 8 -10 24 -10 34 0 26 6 18 14 -19z m616 31
c0 -2 -7 -6 -15 -10 -8 -3 -15 -1 -15 4 0 6 7 10 15 10 8 0 15 -2 15 -4z
m-3020 -16 c0 -5 -2 -10 -4 -10 -3 0 -8 5 -11 10 -3 6 -1 10 4 10 6 0 11 -4
11 -10z m2887 4 c-3 -3 -12 -4 -19 -1 -8 3 -5 6 6 6 11 1 17 -2 13 -5z m-4492
-24 c3 -5 -1 -10 -10 -10 -9 0 -13 5 -10 10 3 6 8 10 10 10 2 0 7 -4 10 -10z
m4012 -62 c-3 -8 -6 -5 -6 6 -1 11 2 17 5 13 3 -3 4 -12 1 -19z m618 12 c3 -6
-1 -7 -9 -4 -18 7 -21 14 -7 14 6 0 13 -4 16 -10z m-4575 -20 c0 -5 -4 -10
-10 -10 -5 0 -10 5 -10 10 0 6 5 10 10 10 6 0 10 -4 10 -10z m-30 -100 c0 -5
-2 -10 -4 -10 -3 0 -8 5 -11 10 -3 6 -1 10 4 10 6 0 11 -4 11 -10z m180 -40
c0 -5 -4 -10 -10 -10 -5 0 -10 5 -10 10 0 6 5 10 10 10 6 0 10 -4 10 -10z
m3144 -20 c-10 -4 -19 -13 -19 -21 0 -9 -11 -14 -32 -14 -17 0 -29 2 -27 4 15
16 81 47 88 43 5 -3 1 -9 -10 -12z m-3004 -50 c0 -5 -4 -10 -10 -10 -5 0 -10
5 -10 10 0 6 5 10 10 10 6 0 10 -4 10 -10z m2094 -65 c3 -9 0 -15 -9 -15 -8 0
-15 7 -15 15 0 8 4 15 9 15 5 0 11 -7 15 -15z m-2890 -47 c-23 -28 -36 -38
-48 -38 -5 0 4 13 20 30 34 34 56 41 28 8z m-208 -35 c-10 -10 -19 5 -10 18 6
11 8 11 12 0 2 -7 1 -15 -2 -18z m134 2 c0 -8 -2 -15 -4 -15 -2 0 -6 7 -10 15
-3 8 -1 15 4 15 6 0 10 -7 10 -15z m-73 -19 c-8 -17 -15 -22 -22 -15 -7 7 -4
15 9 25 26 18 26 18 13 -10z m702 -6 c-14 -8 -65 -14 -84 -10 -5 1 10 8 35 14
45 13 75 10 49 -4z m-664 0 c-3 -5 -12 -10 -18 -10 -7 0 -6 4 3 10 19 12 23
12 15 0z m4315 -4 c0 -2 -7 -7 -16 -10 -8 -3 -12 -2 -9 4 6 10 25 14 25 6z
m-4065 -16 c-3 -5 -11 -10 -16 -10 -6 0 -7 5 -4 10 3 6 11 10 16 10 6 0 7 -4
4 -10z m214 6 c-12 -10 -79 -16 -79 -6 0 5 19 10 42 10 23 0 39 -2 37 -4z
m-539 -25 c0 -12 -20 -25 -27 -18 -7 7 6 27 18 27 5 0 9 -4 9 -9z m350 -16 c0
-8 -2 -15 -4 -15 -2 0 -6 7 -10 15 -3 8 -1 15 4 15 6 0 10 -7 10 -15z m580
-49 c0 -13 -41 -26 -81 -26 -30 0 -22 28 9 33 56 8 72 7 72 -7z m-180 -36 c0
-5 -25 -10 -56 -10 -34 0 -53 4 -49 10 3 6 28 10 56 10 27 0 49 -4 49 -10z
m2060 -15 c7 -9 8 -15 2 -15 -5 0 -12 7 -16 15 -3 8 -4 15 -2 15 2 0 9 -7 16
-15z m-2230 -15 c0 -5 -4 -10 -10 -10 -5 0 -10 5 -10 10 0 6 5 10 10 10 6 0
10 -4 10 -10z m2170 -20 c0 -5 -2 -10 -4 -10 -3 0 -8 5 -11 10 -3 6 -1 10 4
10 6 0 11 -4 11 -10z m-1730 -30 c0 -5 -4 -10 -10 -10 -5 0 -10 5 -10 10 0 6
5 10 10 10 6 0 10 -4 10 -10z m127 -16 c-3 -3 -12 -4 -19 -1 -8 3 -5 6 6 6 11
1 17 -2 13 -5z m-707 -18 c0 -3 -4 -8 -10 -11 -5 -3 -10 -1 -10 4 0 6 5 11 10
11 6 0 10 -2 10 -4z m608 -29 c24 -19 12 -27 -18 -12 -16 9 -30 20 -30 25 0
10 27 3 48 -13z m229 -41 c-4 -12 -147 -17 -147 -6 0 16 19 21 82 19 45 -1 67
-6 65 -13z m67 -2 c9 -22 8 -24 -9 -24 -8 0 -15 9 -15 20 0 24 15 27 24 4z
m-244 -14 c0 -5 -4 -10 -10 -10 -5 0 -10 5 -10 10 0 6 5 10 10 10 6 0 10 -4
10 -10z m2246 -19 c14 -11 20 -22 14 -26 -5 -3 -22 5 -37 19 -32 30 -13 35 23
7z m-41 -11 c3 -5 1 -10 -4 -10 -6 0 -11 5 -11 10 0 6 2 10 4 10 3 0 8 -4 11
-10z m-162 -17 c-7 -2 -21 -2 -30 0 -10 3 -4 5 12 5 17 0 24 -2 18 -5z m-1640
-23 c10 0 15 -5 12 -10 -4 -6 -19 -8 -33 -6 -15 2 -30 5 -34 5 -5 1 -8 6 -8
12 0 7 9 9 23 5 12 -3 30 -6 40 -6z m1874 4 c-3 -3 -12 -4 -19 -1 -8 3 -5 6 6
6 11 1 17 -2 13 -5z m1993 -44 c-7 -17 -14 -29 -16 -27 -2 2 1 18 7 36 6 18
14 30 17 27 2 -3 -1 -19 -8 -36z m-2188 8 c-7 -7 -12 -8 -12 -2 0 6 3 14 7 17
3 4 9 5 12 2 2 -3 -1 -11 -7 -17z m227 -27 c7 -5 9 -11 5 -14 -5 -3 -15 1 -22
9 -14 16 -5 18 17 5z m58 -7 c-3 -3 -12 -4 -19 -1 -8 3 -5 6 6 6 11 1 17 -2
13 -5z m-2658 -13 c8 -5 16 -17 17 -26 2 -13 -5 -15 -29 -13 -24 2 -33 8 -35
26 -4 24 20 30 47 13z m2717 -18 c-10 -10 -19 5 -10 18 6 11 8 11 12 0 2 -7 1
-15 -2 -18z m-29 1 c-3 -3 -12 -4 -19 -1 -8 3 -5 6 6 6 11 1 17 -2 13 -5z
m-97 -59 c0 -8 -4 -15 -10 -15 -5 0 -10 7 -10 15 0 8 5 15 10 15 6 0 10 -7 10
-15z m2093 0 c-3 -9 -8 -14 -10 -11 -3 3 -2 9 2 15 9 16 15 13 8 -4z m-1127
-205 c33 -19 82 -53 109 -76 28 -22 109 -80 180 -127 72 -48 144 -99 160 -114
17 -16 26 -25 21 -21 -5 4 -15 0 -22 -10 -16 -21 -101 -22 -115 -1 -11 19 -31
-1 -31 -32 1 -37 19 -136 28 -150 11 -18 14 -90 3 -83 -5 3 -9 17 -10 32 0 24
-1 25 -9 7 -8 -18 -9 -17 -9 8 -1 15 -5 27 -11 27 -5 0 -10 7 -10 16 0 9 -10
29 -21 46 -17 24 -27 29 -50 26 -26 -4 -29 -1 -40 46 -6 28 -16 56 -21 63 -6
7 -4 13 4 17 10 5 10 7 1 12 -7 3 -13 13 -13 22 -1 10 -10 28 -21 41 -16 19
-22 22 -29 12 -4 -8 -13 -10 -19 -7 -6 4 -11 4 -11 -1 0 -4 -13 -14 -30 -21
-25 -12 -29 -18 -24 -40 3 -15 15 -40 26 -55 11 -16 17 -35 14 -43 -3 -8 -1
-14 3 -14 5 0 12 6 14 13 3 7 6 5 6 -5 1 -10 6 -18 11 -18 6 0 10 -4 10 -10 0
-20 -29 -9 -54 21 -24 28 -56 35 -56 12 0 -15 -74 -8 -109 10 -18 9 -37 14
-42 11 -5 -3 -9 2 -9 10 0 12 -9 14 -50 9 -41 -5 -50 -3 -50 9 0 9 10 22 22
30 l22 15 -22 46 c-12 26 -29 47 -38 47 -17 0 -57 37 -66 62 -10 24 23 98 43
98 25 0 41 -25 33 -54 -6 -26 8 -37 22 -15 4 7 9 8 17 0 7 -7 6 -15 -3 -26
-10 -12 -10 -15 4 -15 9 0 16 5 16 10 0 6 9 10 21 10 27 0 19 27 -29 99 -57
83 -62 94 -55 121 8 34 22 50 39 43 19 -7 18 7 -3 22 -21 16 -10 45 17 45 11
0 20 5 20 11 0 7 35 -26 79 -72 44 -47 105 -99 137 -119z m-496 180 c0 -5 -4
-10 -10 -10 -5 0 -10 5 -10 10 0 6 5 10 10 10 6 0 10 -4 10 -10z m-315 -16
c-9 -9 -19 -13 -23 -10 -3 4 0 11 8 16 24 15 33 11 15 -6z m1880 -24 c-3 -5
-12 -10 -18 -10 -7 0 -6 4 3 10 19 12 23 12 15 0z m-1810 -20 c3 -5 1 -10 -4
-10 -6 0 -11 5 -11 10 0 6 2 10 4 10 3 0 8 -4 11 -10z m1920 -30 c3 -5 1 -10
-4 -10 -6 0 -11 5 -11 10 0 6 2 10 4 10 3 0 8 -4 11 -10z m-1990 -10 c3 -5 -1
-10 -9 -10 -9 0 -16 5 -16 10 0 6 4 10 9 10 6 0 13 -4 16 -10z m1805 -33 c0
-2 -10 -12 -22 -23 l-23 -19 19 23 c18 21 26 27 26 19z m-1620 -17 c0 -5 -4
-10 -10 -10 -5 0 -10 5 -10 10 0 6 5 10 10 10 6 0 10 -4 10 -10z m-1250 -41
c0 -5 -7 -6 -15 -3 -8 4 -15 13 -15 21 0 13 3 13 15 3 8 -7 15 -16 15 -21z
m-350 -13 c0 -2 -9 -6 -20 -9 -11 -3 -20 -1 -20 4 0 5 9 9 20 9 11 0 20 -2 20
-4z m3170 -30 c0 -2 -8 -10 -17 -17 -16 -13 -17 -12 -4 4 13 16 21 21 21 13z
m-3320 -60 c0 -3 -4 -8 -10 -11 -5 -3 -10 -1 -10 4 0 6 5 11 10 11 6 0 10 -2
10 -4z m305 -6 c-3 -5 -12 -10 -18 -10 -7 0 -6 4 3 10 19 12 23 12 15 0z
m-395 -20 c0 -5 -5 -10 -11 -10 -5 0 -7 5 -4 10 3 6 8 10 11 10 2 0 4 -4 4
-10z m2090 -9 c0 -6 -4 -13 -10 -16 -5 -3 -10 1 -10 9 0 9 5 16 10 16 6 0 10
-4 10 -9z m-1080 -21 c0 -5 -4 -10 -10 -10 -5 0 -10 5 -10 10 0 6 5 10 10 10
6 0 10 -4 10 -10z m90 -30 c0 -5 -4 -10 -10 -10 -5 0 -10 5 -10 10 0 6 5 10
10 10 6 0 10 -4 10 -10z m-885 -70 c-3 -5 -12 -10 -18 -10 -7 0 -6 4 3 10 19
12 23 12 15 0z m215 -30 c0 -5 -5 -10 -11 -10 -5 0 -7 5 -4 10 3 6 8 10 11 10
2 0 4 -4 4 -10z m3560 -227 c8 -4 21 -15 28 -25 7 -10 18 -16 23 -13 5 4 9 -1
9 -9 0 -15 13 -21 35 -16 6 1 7 -2 2 -6 -4 -4 1 -16 10 -27 17 -20 17 -20 -2
-6 -39 27 -165 131 -165 136 0 3 10 -2 23 -11 12 -9 29 -19 37 -23z m-200 -27
c0 -2 -7 -7 -16 -10 -8 -3 -12 -2 -9 4 6 10 25 14 25 6z m229 -103 c2 -2 0 -3
-5 -3 -5 0 -29 18 -54 41 l-45 41 50 -38 c28 -21 52 -40 54 -41z m-1674 -23
c3 -5 -1 -10 -10 -10 -9 0 -13 5 -10 10 3 6 8 10 10 10 2 0 7 -4 10 -10z
m1675 -42 c0 -10 -16 5 -40 37 -10 15 -7 14 13 -4 15 -14 27 -29 27 -33z m40
30 c0 -6 -6 -5 -15 2 -8 7 -15 14 -15 16 0 2 7 1 15 -2 8 -4 15 -11 15 -16z
m-849 -128 c141 -14 152 -17 185 -49 16 -15 50 -42 77 -60 26 -17 47 -35 47
-40 0 -4 6 -8 13 -8 25 0 157 -96 157 -114 0 -30 -42 -108 -55 -103 -7 3 -20
-7 -30 -22 -9 -15 -20 -23 -24 -18 -3 5 -22 18 -41 28 -19 11 -52 30 -74 44
l-38 24 20 21 c10 12 27 36 37 52 15 25 13 24 -14 -8 -35 -40 -91 -75 -91 -57
0 7 -6 8 -19 0 -33 -17 -45 -11 -20 10 28 23 15 26 -21 5 -37 -21 -49 -18 -20
6 22 18 22 20 5 16 -11 -3 -29 -8 -40 -12 -12 -4 -8 2 10 15 32 23 32 23 -37
4 l-23 -6 23 17 c29 21 15 43 -16 26 -34 -18 -39 -12 -7 7 38 24 92 77 106
105 10 22 10 22 -6 2 -9 -11 -22 -27 -28 -35 -24 -32 -85 -70 -110 -70 -15 0
-27 3 -27 8 0 4 -18 27 -40 52 -57 63 -113 136 -112 147 1 8 46 19 88 22 12 0
68 -4 125 -9z m-801 -30 c0 -5 -4 -10 -10 -10 -5 0 -10 5 -10 10 0 6 5 10 10
10 6 0 10 -4 10 -10z m-4825 -70 c-10 -11 -20 -18 -23 -16 -5 6 21 35 32 36 5
0 1 -9 -9 -20z m6195 -5 l23 -24 -32 12 c-17 6 -31 17 -31 24 0 20 14 16 40
-12z m67 -52 c-4 -3 1 -12 11 -20 15 -13 15 -13 -6 -3 -19 9 -23 30 -5 30 4 0
3 -3 0 -7z m851 -208 c-3 -3 -9 2 -12 12 -6 14 -5 15 5 6 7 -7 10 -15 7 -18z
m-2698 -15 c0 -5 -5 -10 -11 -10 -5 0 -7 5 -4 10 3 6 8 10 11 10 2 0 4 -4 4
-10z m2210 -32 c0 -15 -45 10 -48 27 -4 16 -2 16 22 -1 14 -11 26 -22 26 -26z
m520 32 c0 -5 -2 -10 -4 -10 -3 0 -8 5 -11 10 -3 6 -1 10 4 10 6 0 11 -4 11
-10z m-2760 -10 c0 -5 -4 -10 -10 -10 -5 0 -10 5 -10 10 0 6 5 10 10 10 6 0
10 -4 10 -10z m2305 -70 c3 -6 -1 -7 -9 -4 -18 7 -21 14 -7 14 6 0 13 -4 16
-10z m55 -46 c0 -2 -9 0 -20 6 -11 6 -20 13 -20 16 0 2 9 0 20 -6 11 -6 20
-13 20 -16z m-2736 -10 c9 -22 -3 -32 -14 -14 -12 19 -12 30 -1 30 5 0 12 -7
15 -16z m1806 -4 c0 -5 -2 -10 -4 -10 -3 0 -8 5 -11 10 -3 6 -1 10 4 10 6 0
11 -4 11 -10z m981 -13 c43 -23 69 -42 69 -50 0 -10 -38 10 -73 39 -32 27 -31
30 4 11z m-837 -48 c30 -35 33 -51 9 -42 -10 4 -14 2 -10 -4 5 -7 0 -9 -12 -6
-11 3 -34 23 -52 46 -21 26 -27 38 -16 34 11 -4 17 -1 17 9 0 21 30 4 64 -37z
m941 -19 c3 -5 2 -10 -4 -10 -5 0 -13 5 -16 10 -3 6 -2 10 4 10 5 0 13 -4 16
-10z m-5971 -60 c18 0 22 -6 23 -35 1 -39 -11 -45 -27 -15 -6 12 -22 25 -36
30 -14 6 -22 15 -19 21 4 6 14 8 22 5 8 -3 25 -6 37 -6z m5059 -34 c16 0 25
-15 10 -17 -5 0 -18 -2 -31 -3 -14 -2 -27 5 -33 17 -10 17 -8 18 13 11 12 -4
31 -8 41 -8z m1068 -12 c19 -15 27 -24 19 -20 -8 3 -23 9 -32 12 -9 3 -19 12
-22 20 -7 19 -5 18 35 -12z m-1731 0 c0 -8 -4 -12 -10 -9 -5 3 -10 10 -10 16
0 5 5 9 10 9 6 0 10 -7 10 -16z m717 -19 c13 -29 -1 -34 -17 -6 -12 23 -13 31
-2 31 4 0 12 -11 19 -25z m1068 -15 c3 -5 1 -10 -4 -10 -6 0 -11 5 -11 10 0 6
2 10 4 10 3 0 8 -4 11 -10z m122 -16 c-3 -3 -12 -4 -19 -1 -8 3 -5 6 6 6 11 1
17 -2 13 -5z m-2777 -13 c0 -6 -4 -13 -10 -16 -5 -3 -10 1 -10 9 0 9 5 16 10
16 6 0 10 -4 10 -9z m1061 -168 c-10 -4 -10 -7 -1 -13 9 -5 8 -9 -2 -13 -9 -3
-14 2 -15 14 -1 12 4 19 15 18 12 0 13 -2 3 -6z m-161 -38 c0 -8 -2 -15 -4
-15 -2 0 -6 7 -10 15 -3 8 -1 15 4 15 6 0 10 -7 10 -15z m-1226 -20 c-7 -16
-24 -21 -24 -6 0 8 7 13 27 20 1 1 0 -6 -3 -14z m2424 -13 c-14 -18 -24 -24
-26 -16 -4 16 18 43 36 44 9 0 5 -10 -10 -28z m-88 9 c0 -18 -47 -65 -53 -54
-4 6 5 22 20 37 28 28 33 31 33 17z m-695 -31 c3 -5 1 -10 -4 -10 -6 0 -11 5
-11 10 0 6 2 10 4 10 3 0 8 -4 11 -10z m512 -17 c-7 -6 -46 10 -41 18 3 5 14
3 24 -3 11 -7 18 -13 17 -15z m-1218 0 c11 -9 -19 -24 -38 -18 -33 10 -27 37
7 29 15 -4 29 -9 31 -11z m-114 -24 c-6 -17 -3 -19 18 -14 33 9 44 -11 15 -26
-42 -23 -68 -68 -68 -119 0 -30 -21 -53 -28 -31 -3 9 -11 6 -26 -8 -12 -11
-36 -24 -54 -27 -27 -6 -33 -3 -41 18 -10 27 -53 42 -69 26 -6 -6 -12 -6 -16
0 -3 5 1 15 9 22 8 7 15 25 15 41 0 17 5 29 13 29 6 0 39 14 71 30 61 31 91
37 101 20 11 -17 25 0 25 30 0 27 16 43 33 33 4 -3 5 -13 2 -24z m1646 -76
c12 -15 12 -16 -5 -10 -10 4 -25 2 -32 -4 -10 -8 -14 -8 -14 -1 0 8 23 29 36
32 1 0 8 -8 15 -17z m-1561 -21 c0 -17 -39 -31 -66 -22 l-29 8 33 1 c17 1 32
6 32 11 0 6 7 10 15 10 8 0 15 -3 15 -8z m1487 -14 c-3 -8 -6 -5 -6 6 -1 11 2
17 5 13 3 -3 4 -12 1 -19z m81 -20 c-2 -7 3 -12 10 -10 8 1 11 -2 7 -7 -6 -11
-35 -4 -35 8 0 8 11 21 17 21 2 0 2 -6 1 -12z m-1658 -38 c0 -5 -5 -10 -11
-10 -5 0 -7 5 -4 10 3 6 8 10 11 10 2 0 4 -4 4 -10z m-915 -162 c4 4 -3 -10
-15 -30 -27 -46 -24 -82 8 -86 13 -2 22 -10 22 -20 0 -9 3 -27 6 -39 8 -31
-10 -29 -24 2 -7 14 -20 25 -31 25 -21 0 -26 10 -36 78 -8 52 15 88 45 72 10
-5 21 -6 25 -2z m-3255 -13 c0 -8 -4 -15 -10 -15 -5 0 -10 7 -10 15 0 8 5 15
10 15 6 0 10 -7 10 -15z m-444 -77 c-22 -13 -39 0 -23 17 9 9 16 10 25 2 11
-9 10 -12 -2 -19z m3789 -28 c-4 -6 3 -6 21 0 21 9 29 7 40 -7 7 -10 14 -27
14 -39 0 -11 9 -29 20 -39 17 -16 18 -21 6 -49 -7 -17 -11 -37 -9 -44 3 -7 -1
-10 -11 -6 -9 3 -20 -2 -27 -14 -20 -32 -40 -2 -40 63 -1 47 -4 55 -20 55 -10
0 -19 7 -19 15 0 8 5 15 10 15 6 0 10 5 10 11 0 8 -5 8 -15 -1 -8 -7 -23 -9
-32 -5 -17 6 -17 7 0 19 9 7 17 18 17 25 0 6 9 11 21 11 11 0 17 -4 14 -10z
m75 -251 c0 -6 -4 -7 -10 -4 -5 3 -10 11 -10 16 0 6 5 7 10 4 6 -3 10 -11 10
-16z m1430 11 c0 -5 -5 -10 -11 -10 -5 0 -7 5 -4 10 3 6 8 10 11 10 2 0 4 -4
4 -10z m-5493 -57 c24 -54 8 -103 -32 -103 -16 0 -26 9 -35 31 -12 27 -11 36
5 65 22 41 46 44 62 7z m291 4 c2 -10 -3 -26 -11 -35 -8 -9 -18 -32 -22 -49
-3 -18 -13 -33 -20 -33 -18 0 -30 39 -16 53 6 6 11 19 11 30 0 49 50 78 58 34z
m5180 -63 c-1 -36 -5 -67 -8 -69 -13 -8 -41 32 -43 61 -2 23 2 29 16 27 16 -1
18 4 12 35 -6 31 -5 34 8 23 11 -9 15 -31 15 -77z m-5085 70 c3 -3 3 -12 0
-20 -4 -11 -9 -12 -19 -3 -8 6 -14 15 -14 20 0 10 24 12 33 3z m3893 -36 c4
-7 4 -10 -1 -6 -4 4 -14 0 -21 -10 -12 -15 -12 -15 -7 6 6 24 18 29 29 10z
m-4180 -55 c5 -30 3 -43 -5 -43 -7 0 -11 -6 -9 -13 2 -7 -1 -14 -7 -15 -16 -5
-27 80 -13 106 15 29 25 18 34 -35z m4244 36 c0 -11 -4 -17 -10 -14 -5 3 -10
13 -10 21 0 8 5 14 10 14 6 0 10 -9 10 -21z m2390 -24 c0 -47 -16 -65 -59 -65
-12 0 -21 -4 -21 -9 0 -17 -38 -22 -59 -9 -12 7 -21 21 -21 30 0 10 -7 18 -15
18 -8 0 -15 7 -15 15 0 9 -7 18 -15 21 -25 10 -17 24 14 24 40 0 64 -25 51
-51 -6 -11 -8 -24 -5 -29 12 -20 34 -9 50 24 9 19 25 36 36 39 10 3 19 12 19
21 0 9 8 16 20 16 17 0 20 -7 20 -45z m-6891 26 c11 -7 10 -11 -7 -20 -18 -9
-19 -15 -10 -39 6 -16 8 -41 4 -55 -5 -22 -12 -27 -39 -27 -17 0 -39 6 -48 13
-15 11 -15 15 -3 32 8 11 19 36 24 57 7 26 17 38 33 41 12 2 24 5 27 5 3 1 11
-2 19 -7z m5856 -41 c-3 -5 -14 -10 -23 -9 -14 0 -13 2 3 9 27 11 27 11 20 0z
m-130 -130 c3 -6 -1 -7 -9 -4 -18 7 -21 14 -7 14 6 0 13 -4 16 -10z m102 -82
c-3 -8 -6 -5 -6 6 -1 11 2 17 5 13 3 -3 4 -12 1 -19z m-495 -100 c-3 -20 -8
-26 -14 -20 -6 6 -7 26 -3 49 6 29 9 34 14 19 4 -10 5 -32 3 -48z"/>
<path d="M2945 5989 c-8 -12 -9 -12 33 -33 37 -19 42 -9 9 22 -26 25 -33 27
-42 11z"/>
<path d="M2964 5935 c11 -8 25 -15 30 -15 6 0 2 7 -8 15 -11 8 -25 15 -30 15
-6 0 -2 -7 8 -15z"/>
<path d="M4701 5034 c0 -11 3 -14 6 -6 3 7 2 16 -1 19 -3 4 -6 -2 -5 -13z"/>
<path d="M4587 4553 c-10 -9 -9 -23 2 -23 5 0 11 7 15 15 5 15 -5 20 -17 8z"/>
<path d="M5175 3941 c-32 -34 -35 -40 -17 -38 11 0 19 4 16 8 -2 4 8 21 22 38
36 43 26 39 -21 -8z"/>
<path d="M4935 2770 c-3 -5 1 -10 10 -10 9 0 13 5 10 10 -3 6 -8 10 -10 10 -2
0 -7 -4 -10 -10z"/>
<path d="M5815 2209 c-4 -6 -5 -13 -2 -16 7 -7 27 6 27 18 0 12 -17 12 -25 -2z"/>
<path d="M6240 7871 c0 -14 41 -41 62 -41 10 0 23 -9 30 -20 7 -11 18 -20 25
-20 7 0 13 -5 13 -11 0 -6 7 -9 15 -5 9 3 15 0 15 -8 0 -8 10 -16 23 -20 17
-5 28 1 48 24 14 16 31 30 37 30 7 0 12 16 12 40 l0 40 -140 0 c-81 0 -140 -4
-140 -9z"/>
<path d="M370 7680 c0 -5 7 -10 15 -10 8 0 15 5 15 10 0 6 -7 10 -15 10 -8 0
-15 -4 -15 -10z"/>
<path d="M5906 7500 c-28 -11 -52 -17 -55 -15 -2 3 -15 -2 -28 -10 -19 -13
-28 -13 -46 -4 -12 7 -26 17 -30 23 -6 8 -10 7 -14 -1 -2 -7 -10 -13 -17 -13
-18 0 -52 -31 -59 -55 -15 -48 -16 -95 -2 -109 8 -8 15 -21 15 -30 0 -8 5 -18
10 -21 23 -14 1 -125 -25 -125 -7 0 -15 -6 -18 -12 -6 -19 12 -50 25 -42 5 4
15 0 20 -7 7 -11 11 -11 15 -1 9 22 24 13 17 -12 -4 -18 -1 -26 14 -30 11 -4
23 -18 26 -31 4 -17 13 -25 29 -25 12 0 31 -9 40 -21 16 -18 20 -19 30 -5 16
20 63 31 72 16 4 -7 2 -22 -5 -35 -11 -20 -9 -29 10 -59 12 -20 28 -36 35 -36
7 0 15 -5 17 -11 2 -7 22 -13 43 -15 22 -1 42 -4 45 -5 3 -1 13 0 23 1 11 1
26 -8 34 -19 8 -12 18 -21 24 -21 22 0 1 110 -28 138 -7 7 -14 23 -14 35 -1
12 -3 29 -4 37 -1 8 -3 21 -4 28 0 6 -6 11 -13 10 -6 -2 -14 5 -16 15 -2 9 2
17 8 17 6 0 19 7 27 16 30 29 113 -8 113 -51 0 -14 5 -25 10 -25 6 0 10 3 10
8 0 4 12 14 28 22 28 16 97 12 111 -6 9 -14 58 -34 65 -27 3 4 6 17 6 30 0 29
16 30 31 2 8 -15 8 -24 0 -32 -6 -6 -11 -18 -11 -26 0 -11 5 -9 16 7 16 24 37
21 27 -3 -3 -8 0 -15 7 -15 6 0 9 -4 6 -8 -3 -5 13 -19 34 -33 22 -13 40 -28
40 -33 0 -5 -7 -3 -15 4 -9 8 -15 9 -15 2 0 -6 5 -14 11 -18 6 -3 9 -19 6 -34
-4 -19 -2 -27 9 -27 18 0 48 53 38 69 -5 7 -3 8 6 3 10 -6 12 -4 6 11 -13 31
-16 75 -6 69 6 -4 10 4 10 16 0 13 14 38 32 56 17 18 33 40 34 48 3 17 -41 55
-63 55 -8 0 -13 6 -11 12 3 7 -10 29 -29 48 -36 39 -40 50 -18 50 12 0 14 7 9
28 -21 88 -81 132 -105 78 -9 -18 -17 -23 -33 -19 -65 16 -74 15 -85 -6 -7
-12 -18 -21 -26 -21 -18 0 -18 5 -5 31 8 15 6 24 -9 41 -11 11 -18 24 -16 28
4 7 -22 23 -55 33 -12 4 -11 6 3 6 9 1 17 5 17 10 0 5 -14 8 -32 6 -22 -2 -34
-9 -40 -24 -4 -13 -19 -24 -38 -27 -17 -4 -33 -11 -36 -15 -3 -5 -14 -9 -25
-9 -13 0 -19 7 -19 21 0 30 -37 59 -74 59 -40 0 -53 10 -51 38 2 27 -5 27 -69
2z m650 -537 c-10 -10 -19 5 -10 18 6 11 8 11 12 0 2 -7 1 -15 -2 -18z m54
-14 c0 -12 -29 -24 -37 -16 -3 4 -3 13 0 21 6 16 37 11 37 -5z"/>
<path d="M9730 7470 c0 -13 18 -22 24 -11 3 5 -1 11 -9 15 -8 3 -15 1 -15 -4z"/>
<path d="M3040 7285 c0 -17 2 -18 24 -9 18 7 12 24 -10 24 -8 0 -14 -7 -14
-15z"/>
<path d="M9510 7291 c0 -5 -16 -12 -35 -15 -31 -6 -34 -9 -21 -21 8 -8 19 -15
25 -15 6 0 11 -5 11 -11 0 -5 4 -8 8 -5 11 7 91 -17 100 -30 9 -13 59 -44 70
-44 6 0 12 9 15 20 3 11 1 20 -4 20 -5 0 -24 15 -41 33 -18 17 -38 31 -44 29
-7 -1 -21 9 -32 23 -19 24 -52 34 -52 16z"/>
<path d="M1400 7270 c0 -5 9 -10 20 -10 11 0 20 5 20 10 0 6 -9 10 -20 10 -11
0 -20 -4 -20 -10z"/>
<path d="M1740 7250 c0 -5 5 -10 10 -10 6 0 10 5 10 10 0 6 -4 10 -10 10 -5 0
-10 -4 -10 -10z"/>
<path d="M5617 7153 c-4 -3 -7 -13 -7 -22 1 -13 3 -13 11 2 11 19 8 33 -4 20z"/>
<path d="M5573 7135 c-3 -9 -3 -18 0 -21 9 -9 27 6 27 22 0 19 -19 18 -27 -1z"/>
<path d="M3905 6802 l-30 -16 35 -7 c42 -8 30 -15 -29 -18 -24 -1 -28 -5 -24
-21 3 -11 0 -20 -6 -20 -6 0 -11 -5 -11 -11 0 -8 4 -8 14 0 10 9 39 10 103 4
48 -4 96 -7 106 -6 10 2 17 -4 17 -13 0 -13 7 -15 32 -10 17 3 34 8 37 11 9 9
-74 75 -94 74 -11 0 -14 -3 -7 -6 17 -7 15 -33 -3 -33 -9 0 -18 7 -21 15 -4 8
-14 15 -24 15 -10 0 -20 9 -23 19 -8 32 -38 41 -72 23z"/>
<path d="M3812 6803 c-15 -6 -6 -23 14 -23 8 0 14 7 14 15 0 15 -6 17 -28 8z"/>
<path d="M2765 6770 c-3 -5 -1 -10 4 -10 6 0 11 5 11 10 0 6 -2 10 -4 10 -3 0
-8 -4 -11 -10z"/>
<path d="M3776 6741 c-4 -6 3 -15 14 -21 23 -12 27 2 6 19 -9 8 -16 8 -20 2z"/>
<path d="M3095 6710 c3 -5 10 -10 16 -10 5 0 9 5 9 10 0 6 -7 10 -16 10 -8 0
-12 -4 -9 -10z"/>
<path d="M7309 6696 c-7 -12 -12 -26 -11 -33 2 -7 -11 -19 -28 -28 -17 -9 -28
-21 -24 -26 4 -7 10 -7 17 0 16 16 44 14 51 -4 6 -16 35 -10 48 9 5 7 8 7 8
-1 0 -20 17 -15 42 10 20 20 22 26 10 37 -12 10 -12 14 0 21 9 6 3 11 -22 16
-19 4 -38 6 -42 5 -5 -1 -8 2 -8 6 0 17 -28 8 -41 -12z m31 -66 c0 -5 -4 -10
-10 -10 -5 0 -10 5 -10 10 0 6 5 10 10 10 6 0 10 -4 10 -10z"/>
<path d="M4160 6704 c0 -15 32 -34 57 -33 16 0 22 3 13 6 -8 3 -19 12 -23 19
-8 13 -47 20 -47 8z"/>
<path d="M3238 6673 c7 -3 16 -2 19 1 4 3 -2 6 -13 5 -11 0 -14 -3 -6 -6z"/>
<path d="M3465 6670 c3 -5 12 -10 20 -10 8 0 17 5 20 10 4 6 -5 10 -20 10 -15
0 -24 -4 -20 -10z"/>
<path d="M3521 6664 c0 -11 3 -14 6 -6 3 7 2 16 -1 19 -3 4 -6 -2 -5 -13z"/>
<path d="M4145 6670 c3 -5 8 -10 11 -10 2 0 4 5 4 10 0 6 -5 10 -11 10 -5 0
-7 -4 -4 -10z"/>
<path d="M3680 6646 c0 -8 9 -18 21 -21 29 -10 31 -3 3 18 -20 15 -24 15 -24
3z"/>
<path d="M4185 6650 c-8 -13 20 -24 36 -15 8 6 7 10 -2 16 -18 11 -26 11 -34
-1z"/>
<path d="M3960 6640 c0 -5 5 -10 10 -10 6 0 10 5 10 10 0 6 -4 10 -10 10 -5 0
-10 -4 -10 -10z"/>
<path d="M4025 6640 c-3 -5 -1 -10 4 -10 6 0 11 5 11 10 0 6 -2 10 -4 10 -3 0
-8 -4 -11 -10z"/>
<path d="M4540 6635 c10 -12 10 -15 -1 -15 -10 0 -10 -3 -1 -12 10 -9 16 -9
28 4 20 19 11 38 -18 38 -17 0 -18 -2 -8 -15z"/>
<path d="M7136 6641 c-8 -12 30 -101 43 -101 13 0 22 -43 11 -54 -6 -6 -18 -2
-33 12 -35 33 -57 20 -57 -32 0 -45 12 -57 73 -70 23 -6 27 -3 27 17 0 24 27
57 47 57 17 0 20 18 13 70 -6 48 -33 89 -45 70 -3 -5 -11 -10 -16 -10 -6 0 -7
5 -4 10 3 6 1 10 -6 10 -7 0 -20 7 -30 16 -11 10 -19 12 -23 5z"/>
<path d="M3600 6625 c0 -16 16 -20 24 -6 3 5 -1 11 -9 15 -9 3 -15 0 -15 -9z"/>
<path d="M4480 6620 c0 -6 7 -10 15 -10 8 0 15 2 15 4 0 2 -7 6 -15 10 -8 3
-15 1 -15 -4z"/>
<path d="M4615 6602 c-3 -3 9 -12 26 -19 41 -17 49 -10 10 10 -16 8 -32 12
-36 9z"/>
<path d="M3972 6578 c6 -18 28 -21 28 -4 0 9 -7 16 -16 16 -9 0 -14 -5 -12
-12z"/>
<path d="M6525 6580 c-3 -5 -1 -10 4 -10 6 0 11 -7 11 -15 0 -8 9 -15 19 -15
11 0 23 -4 26 -10 9 -15 35 -12 35 4 0 33 -79 71 -95 46z"/>
<path d="M7351 6574 c0 -11 3 -14 6 -6 3 7 2 16 -1 19 -3 4 -6 -2 -5 -13z"/>
<path d="M7315 6560 c-3 -5 1 -10 10 -10 9 0 13 5 10 10 -3 6 -8 10 -10 10 -2
0 -7 -4 -10 -10z"/>
<path d="M7034 6504 c3 -9 6 -21 7 -27 0 -7 4 -3 9 8 13 29 12 35 -6 35 -11 0
-14 -5 -10 -16z"/>
<path d="M4822 6478 c3 -7 17 -14 31 -16 15 -2 27 -8 27 -13 0 -5 9 -9 19 -9
11 0 23 -5 26 -10 7 -11 35 5 35 20 0 12 -54 32 -98 36 -32 3 -43 1 -40 -8z"/>
<path d="M4990 6464 c0 -14 45 -45 48 -34 2 6 -4 18 -14 25 -20 15 -34 19 -34
9z"/>
<path d="M4960 6424 c0 -14 3 -14 15 -4 8 7 15 14 15 16 0 2 -7 4 -15 4 -8 0
-15 -7 -15 -16z"/>
<path d="M5060 6401 c0 -34 3 -40 27 -46 15 -3 32 -12 36 -18 6 -8 7 -6 3 6
-4 14 1 17 34 17 22 0 40 5 40 10 0 6 -18 10 -40 10 -22 0 -40 -4 -40 -10 0
-5 -4 -10 -10 -10 -5 0 -10 18 -10 40 0 33 -3 40 -20 40 -17 0 -20 -7 -20 -39z"/>
<path d="M5143 6413 c15 -2 39 -2 55 0 15 2 2 4 -28 4 -30 0 -43 -2 -27 -4z"/>
<path d="M10063 6406 c-4 -7 -14 -15 -22 -17 -11 -4 -10 -9 5 -23 17 -18 19
-18 41 8 13 15 21 32 18 37 -9 13 -33 11 -42 -5z"/>
<path d="M10218 6382 c-10 -2 -18 -10 -18 -17 0 -8 -10 -21 -22 -29 -12 -9
-19 -18 -16 -21 3 -4 18 5 33 19 15 14 32 27 37 28 18 6 4 24 -14 20z"/>
<path d="M5608 6363 c7 -3 16 -2 19 1 4 3 -2 6 -13 5 -11 0 -14 -3 -6 -6z"/>
<path d="M9868 6305 c-4 -4 -44 -9 -90 -11 -78 -3 -193 -20 -156 -23 9 0 32
-17 51 -36 49 -50 152 -83 212 -67 19 6 51 4 85 -4 49 -12 56 -11 68 3 16 23
15 43 -3 43 -16 0 -30 42 -22 64 3 8 -1 17 -10 21 -27 10 -128 18 -135 10z"/>
<path d="M5345 6260 c-3 -5 -1 -10 4 -10 6 0 11 5 11 10 0 6 -2 10 -4 10 -3 0
-8 -4 -11 -10z"/>
<path d="M4925 6240 c3 -5 8 -10 11 -10 2 0 4 5 4 10 0 6 -5 10 -11 10 -5 0
-7 -4 -4 -10z"/>
<path d="M7317 6208 c-6 -18 10 -46 34 -59 19 -9 19 -9 10 10 -13 24 -14 34
-2 27 5 -3 11 1 14 9 5 11 1 12 -18 5 -19 -7 -23 -6 -18 5 3 8 1 15 -5 15 -6
0 -12 -6 -15 -12z"/>
<path d="M4923 6184 c-14 -15 -3 -27 14 -16 7 4 9 13 5 19 -5 8 -11 7 -19 -3z"/>
<path d="M7300 6134 c-6 -14 -14 -22 -20 -19 -5 3 -10 1 -10 -5 0 -7 -7 -9
-16 -6 -8 3 -12 2 -9 -4 3 -6 -1 -10 -9 -10 -9 0 -16 -4 -16 -10 0 -5 4 -10 9
-10 14 0 97 40 84 40 -9 0 -10 7 -3 25 5 14 7 25 5 25 -3 0 -10 -12 -15 -26z"/>
<path d="M5152 6088 c5 -15 28 -23 28 -10 0 5 -7 13 -16 16 -10 4 -14 1 -12
-6z"/>
<path d="M5050 6079 c0 -5 5 -7 10 -4 6 3 10 8 10 11 0 2 -4 4 -10 4 -5 0 -10
-5 -10 -11z"/>
<path d="M5253 6075 c-15 -11 -10 -13 31 -16 58 -5 67 3 20 17 -26 8 -38 8
-51 -1z"/>
<path d="M5186 6051 c-4 -7 -5 -15 -2 -18 9 -9 19 4 14 18 -4 11 -6 11 -12 0z"/>
<path d="M5360 6050 c0 -5 5 -10 11 -10 5 0 7 5 4 10 -3 6 -8 10 -11 10 -2 0
-4 -4 -4 -10z"/>
<path d="M5085 6042 c5 -10 0 -13 -21 -10 -15 2 -29 -2 -31 -9 -3 -8 5 -13 20
-13 25 0 57 -23 57 -40 0 -5 -12 -13 -27 -19 -23 -9 -24 -10 -4 -7 13 3 28 0
35 -5 48 -41 61 -49 73 -49 7 0 -3 16 -24 35 -20 19 -41 31 -47 28 -6 -3 -6 0
1 7 10 11 19 8 47 -13 40 -31 110 -39 100 -12 -4 9 -19 15 -38 15 l-31 1 30
14 c29 14 29 14 5 14 -44 -2 -49 0 -87 38 -20 21 -34 32 -29 25 9 -16 -6 -16
-23 1 -11 10 -12 9 -6 -1z"/>
<path d="M6992 6028 c-7 -7 -12 -17 -12 -23 0 -6 -11 -21 -24 -32 -15 -13 -27
-37 -31 -65 -4 -23 -13 -52 -20 -64 -11 -18 -11 -22 6 -32 16 -10 19 -9 19 3
0 8 4 15 9 15 10 0 26 36 30 70 2 19 26 9 59 -25 19 -18 43 -35 55 -37 16 -2
21 -9 20 -26 -2 -12 1 -22 5 -23 4 0 18 -3 31 -5 l25 -4 -22 23 -22 23 28 10
c15 6 32 12 37 13 6 2 19 10 30 17 26 19 59 18 76 -2 7 -9 22 -14 35 -11 16 3
24 -2 28 -17 4 -16 8 -18 18 -8 9 9 8 15 -6 25 -21 16 -33 122 -16 142 16 20
-2 26 -44 14 -30 -8 -35 -13 -31 -32 6 -21 2 -22 -47 -23 l-53 0 -2 39 c-1 43
-6 52 -23 42 -16 -10 -110 -12 -110 -2 0 11 -35 8 -48 -5z"/>
<path d="M5271 5965 c0 -5 4 -17 9 -25 7 -12 12 -12 22 -2 9 9 9 12 -4 12 -9
0 -19 6 -21 13 -3 6 -6 8 -6 2z"/>
<path d="M5335 5930 c3 -5 18 -10 33 -9 24 0 25 1 7 9 -28 12 -47 12 -40 0z"/>
<path d="M6840 5910 c0 -5 5 -10 10 -10 6 0 10 5 10 10 0 6 -4 10 -10 10 -5 0
-10 -4 -10 -10z"/>
<path d="M5280 5900 c0 -5 5 -10 10 -10 6 0 10 5 10 10 0 6 -4 10 -10 10 -5 0
-10 -4 -10 -10z"/>
<path d="M6871 5879 c-16 -15 -19 -25 -12 -32 7 -7 16 -3 30 14 35 42 22 55
-18 18z"/>
<path d="M5192 5868 c5 -15 28 -23 28 -10 0 5 -7 13 -16 16 -10 4 -14 1 -12
-6z"/>
<path d="M5140 5861 c0 -5 8 -11 18 -15 9 -3 24 -9 32 -12 8 -3 4 4 -10 15
-27 22 -40 26 -40 12z"/>
<path d="M5320 5851 c0 -6 5 -13 10 -16 6 -3 10 1 10 9 0 9 -4 16 -10 16 -5 0
-10 -4 -10 -9z"/>
<path d="M7310 5805 c0 -8 2 -15 4 -15 2 0 6 7 10 15 3 8 1 15 -4 15 -6 0 -10
-7 -10 -15z"/>
<path d="M5388 5788 c6 -6 35 -12 64 -13 29 -1 43 0 31 2 -13 2 -23 8 -23 12
0 4 -19 7 -42 8 -30 2 -38 -1 -30 -9z"/>
<path d="M7195 5790 c-16 -26 36 -66 58 -44 9 10 -4 34 -19 34 -8 0 -14 5 -14
10 0 13 -17 13 -25 0z"/>
<path d="M5540 5740 c0 -5 5 -10 11 -10 5 0 7 5 4 10 -3 6 -8 10 -11 10 -2 0
-4 -4 -4 -10z"/>
<path d="M5565 5710 c3 -5 8 -10 11 -10 2 0 4 5 4 10 0 6 -5 10 -11 10 -5 0
-7 -4 -4 -10z"/>
<path d="M5250 5690 c0 -19 3 -21 12 -12 9 9 9 15 0 24 -9 9 -12 7 -12 -12z"/>
<path d="M5585 5611 c-3 -5 2 -11 10 -15 8 -3 17 -1 20 3 3 5 -2 11 -10 15 -8
3 -17 1 -20 -3z"/>
<path d="M6137 5609 c7 -7 15 -10 18 -7 3 3 -2 9 -12 12 -14 6 -15 5 -6 -5z"/>
<path d="M6510 5610 c0 -5 5 -10 11 -10 5 0 7 5 4 10 -3 6 -8 10 -11 10 -2 0
-4 -4 -4 -10z"/>
<path d="M5730 5590 c0 -5 5 -10 10 -10 6 0 10 5 10 10 0 6 -4 10 -10 10 -5 0
-10 -4 -10 -10z"/>
<path d="M6020 5566 c0 -2 9 -6 20 -9 11 -3 18 -1 14 4 -5 9 -34 13 -34 5z"/>
<path d="M7220 5555 c0 -9 -9 -19 -20 -22 -24 -6 -27 -23 -4 -23 9 0 18 -9 21
-19 3 -11 13 -19 24 -18 17 1 17 3 2 19 -9 10 -14 28 -11 43 3 14 1 28 -3 31
-5 3 -9 -2 -9 -11z"/>
<path d="M5520 5300 c0 -5 7 -10 16 -10 8 0 12 5 9 10 -3 6 -10 10 -16 10 -5
0 -9 -4 -9 -10z"/>
<path d="M5905 5220 c3 -5 8 -10 11 -10 2 0 4 5 4 10 0 6 -5 10 -11 10 -5 0
-7 -4 -4 -10z"/>
<path d="M6365 5200 c-3 -4 9 -25 25 -46 16 -22 43 -57 59 -79 32 -45 119
-134 124 -128 10 9 -7 53 -19 53 -8 0 -13 3 -13 8 3 20 -2 32 -15 32 -8 0 -18
9 -21 20 -3 11 -13 20 -21 20 -11 0 -13 6 -9 20 7 22 -11 45 -41 53 -14 4 -12
5 9 7 43 4 45 4 54 14 5 5 3 6 -4 2 -7 -4 -13 -2 -13 3 0 15 -33 14 -48 -1 -9
-9 -12 -8 -12 4 0 16 -47 31 -55 18z"/>
<path d="M5750 5150 c20 -13 50 -13 50 0 0 6 -15 10 -32 10 -25 0 -29 -3 -18
-10z"/>
<path d="M6040 5140 c0 -11 48 -25 56 -17 4 3 3 10 -1 16 -8 14 -55 14 -55 1z"/>
<path d="M6507 5133 c-4 -3 -7 -17 -7 -30 0 -16 6 -23 20 -23 11 0 20 6 20 13
-1 17 -26 48 -33 40z"/>
<path d="M6606 5030 l-30 -5 28 -13 c15 -6 37 -11 49 -11 16 1 17 3 5 6 -9 2
-18 10 -20 16 -2 8 -14 11 -32 7z"/>
<path d="M6393 4949 c14 -8 22 -8 30 0 8 8 3 11 -18 11 -26 -1 -28 -2 -12 -11z"/>
<path d="M6598 4913 c7 -3 16 -2 19 1 4 3 -2 6 -13 5 -11 0 -14 -3 -6 -6z"/>
<path d="M6420 4520 c0 -5 7 -10 16 -10 8 0 12 5 9 10 -3 6 -10 10 -16 10 -5
0 -9 -4 -9 -10z"/>
<path d="M6663 4517 c15 -6 27 -14 27 -19 0 -4 6 -8 13 -8 6 1 1 10 -12 20
-13 11 -31 20 -40 19 -9 -1 -5 -6 12 -12z"/>
<path d="M6446 4491 c-5 -7 0 -18 10 -26 22 -16 68 -20 59 -5 -3 6 -13 10 -22
10 -9 0 -21 7 -28 17 -9 12 -14 13 -19 4z"/>
<path d="M6580 4440 c-9 -6 -10 -10 -3 -10 6 0 15 5 18 10 8 12 4 12 -15 0z"/>
<path d="M6440 4410 c-9 -6 -10 -10 -3 -10 6 0 15 5 18 10 8 12 4 12 -15 0z"/>
<path d="M6476 4393 c-6 -14 -5 -15 5 -6 7 7 10 15 7 18 -3 3 -9 -2 -12 -12z"/>
<path d="M6250 4330 c0 -16 4 -30 9 -30 5 0 9 14 9 30 -1 17 -5 30 -10 30 -4
0 -8 -13 -8 -30z"/>
<path d="M6410 4231 c0 -5 5 -13 10 -16 6 -3 10 -2 10 4 0 5 -4 13 -10 16 -5
3 -10 2 -10 -4z"/>
<path d="M6450 4200 c20 -13 33 -13 25 0 -3 6 -14 10 -23 10 -15 0 -15 -2 -2
-10z"/>
<path d="M6080 4140 c0 -5 7 -10 16 -10 8 0 12 5 9 10 -3 6 -10 10 -16 10 -5
0 -9 -4 -9 -10z"/>
<path d="M6125 4095 c20 -16 38 -23 53 -20 24 6 29 -4 10 -23 -9 -9 -9 -12 0
-12 7 0 12 5 12 10 0 6 10 10 21 10 21 0 21 1 -5 26 -21 22 -29 24 -40 14 -12
-9 -20 -8 -38 4 -36 25 -46 18 -13 -9z"/>
<path d="M6240 4100 c0 -5 7 -7 15 -4 8 4 15 8 15 10 0 2 -7 4 -15 4 -8 0 -15
-4 -15 -10z"/>
<path d="M9933 3949 c-18 -19 -34 -28 -46 -25 -23 6 -34 -19 -17 -39 13 -16
65 -21 56 -6 -3 4 22 9 55 10 33 1 68 5 77 10 9 5 21 9 27 9 5 -1 14 6 19 15
18 28 -9 45 -64 42 -28 -2 -53 1 -56 6 -9 16 -23 10 -51 -22z"/>
<path d="M6950 3955 c24 -8 46 -13 48 -11 5 5 -59 26 -77 25 -9 0 4 -7 29 -14z"/>
<path d="M6269 3945 c17 -32 59 -67 66 -55 4 6 4 14 1 17 -3 4 -6 0 -6 -8 -1
-8 -7 -3 -15 11 -8 14 -14 21 -15 16 0 -4 -9 2 -21 15 -16 19 -18 20 -10 4z"/>
<path d="M6620 3910 c0 -33 -4 -50 -12 -50 -10 0 -10 -3 0 -9 11 -7 12 -22 3
-78 -9 -57 -8 -80 4 -119 17 -55 13 -64 -15 -39 -11 10 -20 15 -20 10 0 -13
42 -45 51 -39 5 3 9 1 9 -3 0 -15 82 -106 265 -293 267 -273 314 -323 338
-363 12 -20 119 -136 237 -258 118 -122 262 -272 318 -333 57 -61 110 -110
118 -110 8 1 12 -2 9 -6 -5 -9 32 -50 45 -50 6 0 0 10 -12 22 -20 20 -20 22
-3 35 17 12 17 13 2 13 -9 0 -17 7 -17 15 0 8 -4 15 -10 15 -5 0 -10 7 -10 15
0 8 6 12 14 9 8 -3 17 -1 21 5 4 7 -5 11 -25 11 -18 0 -29 4 -25 10 3 6 16 10
28 10 18 0 20 2 7 11 -12 9 -11 10 6 6 12 -2 28 -1 35 4 10 6 7 9 -11 10 -42
1 -68 8 -105 28 -39 21 -37 25 12 36 18 3 36 11 40 17 4 8 0 9 -13 3 -10 -4
-39 -9 -64 -12 -43 -4 -47 -3 -95 47 -49 50 -43 56 21 18 66 -39 222 -55 241
-25 4 6 -2 8 -16 4 -22 -5 -22 -5 -6 13 22 24 44 87 44 125 0 25 -2 23 -13
-16 -12 -47 -42 -96 -73 -120 -17 -13 -17 -13 0 8 14 16 15 22 5 26 -10 4 -10
6 0 6 6 1 12 8 12 17 0 8 -4 12 -10 9 -5 -3 -10 0 -10 8 0 8 -7 20 -15 27 -19
16 -20 34 -1 27 11 -4 13 -1 9 10 -5 13 -11 10 -32 -15 -29 -34 -88 -72 -111
-72 -8 1 -1 8 15 17 43 22 66 44 58 56 -3 6 -1 7 5 3 6 -4 19 5 28 19 13 20
14 29 5 38 -10 9 -11 8 -6 -4 3 -9 -2 -22 -12 -30 -16 -13 -17 -12 -4 4 8 9
11 20 8 24 -4 3 -3 11 3 18 7 8 -6 10 -50 7 -60 -4 -71 2 -47 28 6 8 3 7 -9
-3 -26 -22 -35 -22 -97 5 -60 25 -70 36 -54 57 10 13 7 13 -14 -1 -17 -11 -30
-13 -40 -7 -11 7 -10 10 8 15 13 4 21 13 20 24 0 10 -7 16 -14 13 -14 -6 -42
19 -60 55 -12 23 -10 28 27 68 49 54 53 71 5 21 -20 -21 -44 -37 -55 -37 -10
0 -31 17 -47 40 -15 22 -35 40 -43 40 -12 0 -13 2 -1 9 9 6 10 11 2 15 -6 4
-9 12 -6 17 3 5 -1 6 -10 2 -14 -5 -14 -8 -3 -15 10 -8 9 -9 -4 -5 -19 6 -78
-13 -78 -25 0 -4 -5 -8 -12 -8 -19 0 32 48 58 54 20 5 22 9 12 20 -7 8 -16 12
-20 9 -5 -2 -8 2 -8 10 0 7 -11 24 -25 37 -14 13 -25 30 -25 37 0 8 -4 12 -9
9 -21 -13 -2 27 27 57 36 37 72 111 72 147 -1 15 -10 -1 -23 -40 -18 -51 -28
-66 -45 -68 -12 -2 -22 -10 -22 -17 0 -8 -14 -22 -31 -31 -17 -8 -28 -11 -25
-6 4 6 -6 23 -20 39 -15 15 -39 45 -54 65 -22 30 -30 35 -41 25 -7 -7 10 14
39 45 29 31 52 60 52 65 0 4 -13 -6 -28 -23 -37 -43 -82 -71 -91 -56 -4 7 -12
8 -21 2 -8 -6 -24 -10 -35 -9 -17 0 -16 2 8 15 39 21 33 36 -8 18 -21 -8 -35
-10 -35 -4 0 5 7 10 15 10 8 0 19 9 25 21 11 20 11 20 -19 5 -41 -22 -51 -20
-21 4 28 21 22 37 -8 21 -12 -6 -27 -11 -34 -11 -7 1 -2 7 11 14 24 14 38 46
19 46 -5 0 -19 -5 -31 -10 -17 -8 -17 -7 3 7 14 10 43 35 65 57 l40 38 -49
-41 c-44 -37 -97 -61 -136 -61 -13 0 -13 1 0 10 10 6 11 10 3 10 -7 0 -13 4
-13 9 0 12 -87 160 -108 184 -16 18 -3 24 15 6 8 -8 13 -8 17 0 12 19 -2 28
-36 23 -28 -4 -31 -3 -21 10 10 11 8 21 -7 49 -11 19 -27 48 -37 66 -9 17 -24
34 -35 36 -11 3 -21 18 -24 36 -10 48 -24 37 -24 -19z m144 -245 c-5 -11 -1
-14 12 -9 16 5 16 4 4 -5 -17 -12 -36 1 -26 18 10 16 16 13 10 -4z m12 -54
c-1 -8 10 -17 24 -21 21 -5 22 -7 8 -13 -10 -3 -18 -12 -17 -19 0 -10 2 -10 6
0 7 19 21 14 29 -10 5 -13 8 -27 9 -31 0 -4 7 -12 15 -17 11 -7 4 -10 -26 -10
-48 0 -57 6 -43 31 7 15 6 19 -5 19 -10 0 -13 6 -10 15 4 9 0 15 -7 15 -11 0
-11 2 -1 9 10 6 10 10 -2 21 -9 7 -13 16 -10 21 3 5 0 9 -5 9 -6 0 -11 4 -11
9 0 5 11 4 24 -2 12 -6 23 -18 22 -26z m622 -700 c11 -7 10 -9 -3 -14 -9 -4
-14 -3 -10 2 3 5 -1 12 -7 14 -7 3 -8 6 -3 6 6 0 16 -3 23 -8z m75 -48 c-22
-8 -14 -21 9 -15 14 3 19 2 14 -6 -5 -8 0 -12 13 -12 12 0 21 -7 21 -15 0 -7
8 -19 18 -24 9 -6 13 -11 8 -11 -11 0 -146 80 -146 86 0 2 17 4 38 3 20 0 31
-3 25 -6z"/>
<path d="M6435 3900 c3 -5 8 -10 11 -10 2 0 4 5 4 10 0 6 -5 10 -11 10 -5 0
-7 -4 -4 -10z"/>
<path d="M6950 3906 c0 -2 8 -10 18 -17 15 -13 16 -12 3 4 -13 16 -21 21 -21
13z"/>
<path d="M6505 3860 c4 -6 11 -8 16 -5 14 9 11 15 -7 15 -8 0 -12 -5 -9 -10z"/>
<path d="M6556 3855 c-9 -26 -7 -32 5 -12 6 10 9 21 6 23 -2 3 -7 -2 -11 -11z"/>
<path d="M9678 3808 c5 -5 16 -8 23 -6 8 3 3 7 -10 11 -17 4 -21 3 -13 -5z"/>
<path d="M7172 3791 c7 -12 18 -17 27 -13 14 6 14 7 -1 10 -10 2 -18 8 -18 13
0 5 -5 9 -10 9 -6 0 -6 -7 2 -19z"/>
<path d="M6430 3780 c0 -5 5 -10 10 -10 6 0 10 5 10 10 0 6 -4 10 -10 10 -5 0
-10 -4 -10 -10z"/>
<path d="M6511 3781 c-10 -7 -10 -10 -1 -16 6 -4 16 -3 22 3 13 13 -4 23 -21
13z"/>
<path d="M7220 3779 c0 -5 5 -7 10 -4 6 3 10 8 10 11 0 2 -4 4 -10 4 -5 0 -10
-5 -10 -11z"/>
<path d="M9725 3780 c3 -5 8 -10 11 -10 2 0 4 5 4 10 0 6 -5 10 -11 10 -5 0
-7 -4 -4 -10z"/>
<path d="M9690 3770 c0 -5 5 -10 10 -10 6 0 10 5 10 10 0 6 -4 10 -10 10 -5 0
-10 -4 -10 -10z"/>
<path d="M6835 3750 c-3 -5 -2 -10 4 -10 5 0 13 5 16 10 3 6 2 10 -4 10 -5 0
-13 -4 -16 -10z"/>
<path d="M6534 3719 c-7 -11 27 -11 45 0 9 6 5 9 -13 9 -15 0 -29 -4 -32 -9z"/>
<path d="M6860 3719 c0 -5 5 -7 10 -4 6 3 10 8 10 11 0 2 -4 4 -10 4 -5 0 -10
-5 -10 -11z"/>
<path d="M6954 3715 c-9 -22 1 -29 15 -11 8 10 9 16 1 21 -5 3 -13 -1 -16 -10z"/>
<path d="M10196 3719 c-16 -4 -33 -6 -36 -4 -10 6 -33 -49 -33 -78 -1 -29 29
-96 55 -124 23 -25 52 -20 43 7 -3 10 -1 21 5 25 11 7 14 172 3 178 -5 2 -21
0 -37 -4z"/>
<path d="M6575 3693 c-8 -26 -25 -31 -25 -8 0 8 -7 15 -15 15 -8 0 -15 -5 -15
-10 0 -6 7 -13 15 -16 8 -4 15 -12 15 -19 0 -8 6 -17 13 -21 6 -4 9 -3 4 1 -4
5 0 19 9 32 8 13 13 30 10 36 -2 7 -8 2 -11 -10z"/>
<path d="M6800 3690 c0 -5 7 -10 15 -10 8 0 15 5 15 10 0 6 -7 10 -15 10 -8 0
-15 -4 -15 -10z"/>
<path d="M6580 3650 c0 -5 5 -10 11 -10 5 0 7 5 4 10 -3 6 -8 10 -11 10 -2 0
-4 -4 -4 -10z"/>
<path d="M8574 3629 c-15 -30 -28 -36 -39 -20 -3 6 -17 4 -32 -4 -18 -10 -31
-11 -37 -5 -13 13 -29 13 -21 0 3 -6 0 -13 -8 -16 -8 -3 -18 -24 -23 -47 -11
-60 -11 -71 -2 -84 5 -7 4 -14 -3 -18 -8 -6 -7 -10 2 -16 28 -18 62 -9 91 23
20 23 28 27 28 15 0 -9 4 -17 8 -17 9 0 36 66 36 90 1 9 8 14 20 12 10 -2 15
1 12 7 -4 6 4 7 23 1 42 -12 51 -19 51 -38 1 -16 1 -16 11 0 5 9 15 15 22 12
16 -6 21 -60 7 -69 -12 -7 -13 -25 -2 -25 4 0 14 16 21 35 7 19 19 35 27 35 8
0 14 4 14 10 0 5 -7 7 -15 4 -9 -4 -15 0 -15 10 0 9 -8 16 -20 16 -11 0 -20 6
-20 13 0 9 -3 8 -9 -2 -5 -8 -11 -9 -15 -3 -9 14 19 33 38 26 17 -7 22 11 6
21 -14 9 -12 42 3 49 6 4 2 4 -10 2 -13 -2 -23 0 -23 5 0 4 -10 5 -22 0 -12
-4 -37 -5 -55 0 -30 6 -35 4 -49 -22z"/>
<path d="M6332 3530 c0 -14 2 -19 5 -12 2 6 2 18 0 25 -3 6 -5 1 -5 -13z"/>
<path d="M6001 3504 c0 -11 3 -14 6 -6 3 7 2 16 -1 19 -3 4 -6 -2 -5 -13z"/>
<path d="M6322 3480 c0 -14 2 -19 5 -12 2 6 2 18 0 25 -3 6 -5 1 -5 -13z"/>
<path d="M7381 3444 c0 -11 3 -14 6 -6 3 7 2 16 -1 19 -3 4 -6 -2 -5 -13z"/>
<path d="M9122 3411 c-11 -7 -11 -9 2 -14 17 -7 22 -47 6 -47 -5 0 -10 9 -10
21 0 19 -4 20 -42 14 -43 -8 -88 -45 -88 -74 0 -7 -6 -11 -15 -8 -8 4 -17 2
-20 -3 -7 -12 -95 -13 -111 -2 -6 4 -16 17 -22 29 -13 23 -27 23 -114 6 -31
-7 -48 -7 -51 0 -1 5 -13 7 -25 3 -12 -4 -19 -12 -16 -18 9 -14 9 -92 0 -106
-4 -7 -2 -21 5 -33 8 -17 13 -19 19 -8 6 9 12 10 22 2 7 -6 38 -14 68 -17 30
-4 78 -14 107 -23 45 -13 57 -13 95 -2 24 8 43 18 43 23 0 5 11 22 25 38 20
23 33 28 70 29 55 1 85 11 85 30 0 8 10 18 23 24 12 5 22 13 22 17 0 5 9 8 20
8 23 0 24 3 9 33 -16 31 -60 66 -84 67 l-20 1 20 9 c13 6 15 9 5 9 -8 0 -21
-3 -28 -8z"/>
<path d="M7930 3375 c-8 -10 -9 -15 -1 -15 6 0 11 -7 11 -15 0 -8 -4 -15 -9
-15 -8 0 13 -80 30 -110 5 -8 16 -31 26 -50 9 -19 24 -40 32 -46 12 -9 9 -12
-12 -18 -15 -3 -27 -11 -27 -16 0 -6 -6 -10 -14 -10 -9 0 -12 -7 -9 -20 4 -15
0 -20 -15 -20 -24 0 -38 -16 -47 -53 -5 -19 -16 -29 -37 -35 l-30 -7 22 -28
c12 -15 25 -25 30 -22 5 3 12 0 16 -6 4 -8 3 -9 -4 -5 -24 15 -10 -7 74 -109
47 -58 90 -103 95 -99 5 3 8 1 7 -4 -4 -11 84 -123 91 -117 2 3 -4 13 -13 24
-14 15 -15 21 -4 27 7 4 10 4 6 -1 -4 -4 -3 -14 3 -22 14 -16 49 -18 49 -2 0
6 9 8 23 4 17 -5 19 -4 7 4 -10 7 -11 11 -2 11 6 0 12 9 12 20 0 17 4 18 25
10 13 -5 37 -9 52 -8 15 1 35 -2 44 -6 10 -4 23 -1 33 10 13 12 28 15 62 11
33 -3 50 0 68 14 24 19 29 60 8 67 -7 2 -12 12 -12 23 0 10 -4 19 -9 19 -5 0
-11 8 -14 18 -4 9 -13 35 -21 57 -18 47 -21 99 -5 89 13 -8 -15 49 -34 68 -42
42 -49 66 -53 195 -5 138 -8 153 -24 153 -6 0 -8 -10 -4 -25 8 -32 -13 -60
-32 -44 -10 8 -17 7 -30 -5 -8 -9 -19 -14 -24 -11 -5 3 -34 -2 -66 -10 -76
-20 -93 -19 -102 4 -8 21 -65 72 -84 75 -25 4 -46 21 -49 40 -5 25 -23 30 -39
11z m210 -744 c0 -9 -20 -37 -20 -29 0 3 -2 13 -5 21 -4 8 0 14 10 14 8 0 15
-3 15 -6z"/>
<path d="M6316 3355 c-9 -26 -7 -32 5 -12 6 10 9 21 6 23 -2 3 -7 -2 -11 -11z"/>
<path d="M7901 3334 c0 -11 3 -14 6 -6 3 7 2 16 -1 19 -3 4 -6 -2 -5 -13z"/>
<path d="M6856 3262 c-3 -5 9 -22 27 -38 l32 -29 -28 31 c-15 17 -24 33 -20
37 3 4 4 7 0 7 -3 0 -8 -4 -11 -8z"/>
<path d="M6400 3230 c0 -5 5 -10 11 -10 5 0 7 5 4 10 -3 6 -8 10 -11 10 -2 0
-4 -4 -4 -10z"/>
<path d="M9780 3225 c-10 -12 -16 -12 -26 -4 -16 14 -62 4 -86 -18 -34 -31
-17 -97 27 -105 19 -3 44 -42 49 -77 4 -23 105 -30 118 -7 5 10 22 16 42 16
34 0 95 38 79 49 -4 3 -13 15 -19 26 -8 14 -29 23 -67 30 -47 8 -61 16 -82 45
-14 19 -23 40 -21 47 7 17 1 16 -14 -2z"/>
<path d="M6860 3217 c0 -2 15 -16 33 -33 l32 -29 -29 33 c-28 30 -36 37 -36
29z"/>
<path d="M6870 3146 c0 -2 8 -10 18 -17 15 -13 16 -12 3 4 -13 16 -21 21 -21
13z"/>
<path d="M6900 3146 c0 -2 8 -10 18 -17 15 -13 16 -12 3 4 -13 16 -21 21 -21
13z"/>
<path d="M6870 3106 c0 -2 8 -10 18 -17 15 -13 16 -12 3 4 -13 16 -21 21 -21
13z"/>
<path d="M6910 3106 c0 -2 8 -10 18 -17 15 -13 16 -12 3 4 -13 16 -21 21 -21
13z"/>
<path d="M6970 3107 c0 -2 15 -16 33 -33 l32 -29 -29 33 c-28 30 -36 37 -36
29z"/>
<path d="M6870 3066 c0 -2 7 -9 15 -16 13 -11 14 -10 9 4 -5 14 -24 23 -24 12z"/>
<path d="M6910 3066 c0 -2 8 -10 18 -17 15 -13 16 -12 3 4 -13 16 -21 21 -21
13z"/>
<path d="M6980 3036 c0 -2 8 -10 18 -17 15 -13 16 -12 3 4 -13 16 -21 21 -21
13z"/>
<path d="M6870 3026 c0 -2 7 -9 15 -16 9 -7 15 -8 15 -2 0 5 -7 12 -15 16 -8
3 -15 4 -15 2z"/>
<path d="M6920 3015 c7 -9 15 -13 17 -11 7 7 -7 26 -19 26 -6 0 -6 -6 2 -15z"/>
<path d="M6840 3016 c0 -4 6 -13 13 -19 7 -7 27 -25 45 -41 48 -45 38 -26 -13
24 -25 24 -45 41 -45 36z"/>
<path d="M6910 2991 c0 -6 4 -13 10 -16 6 -3 7 1 4 9 -7 18 -14 21 -14 7z"/>
<path d="M6950 2992 c0 -12 19 -26 26 -19 2 2 -2 10 -11 17 -9 8 -15 8 -15 2z"/>
<path d="M7026 2987 c4 -10 15 -22 25 -28 15 -8 17 -6 13 6 -4 9 -9 13 -12 11
-3 -3 -11 2 -19 12 -12 16 -13 16 -7 -1z"/>
<path d="M6872 2935 c26 -27 49 -47 51 -45 2 3 -20 25 -47 50 l-51 44 47 -49z"/>
<path d="M6950 2951 c0 -6 4 -13 10 -16 6 -3 7 1 4 9 -7 18 -14 21 -14 7z"/>
<path d="M6990 2952 c0 -12 19 -26 26 -19 2 2 -2 10 -11 17 -9 8 -15 8 -15 2z"/>
<path d="M7020 2956 c0 -2 8 -10 18 -17 15 -13 16 -12 3 4 -13 16 -21 21 -21
13z"/>
<path d="M6940 2916 c0 -2 8 -10 18 -17 15 -13 16 -12 3 4 -13 16 -21 21 -21
13z"/>
<path d="M6990 2905 c7 -9 15 -13 17 -11 7 7 -7 26 -19 26 -6 0 -6 -6 2 -15z"/>
<path d="M7030 2910 c0 -5 5 -10 11 -10 5 0 7 5 4 10 -3 6 -8 10 -11 10 -2 0
-4 -4 -4 -10z"/>
<path d="M6875 2880 c16 -16 34 -30 39 -30 6 0 -4 14 -23 30 -44 39 -53 39
-16 0z"/>
<path d="M6824 2875 c37 -32 46 -32 16 0 -13 14 -28 25 -34 25 -6 0 2 -11 18
-25z"/>
<path d="M7020 2882 c0 -12 19 -26 26 -19 2 2 -2 10 -11 17 -9 8 -15 8 -15 2z"/>
<path d="M6956 2850 c16 -16 33 -30 38 -30 6 0 -3 14 -19 30 -16 17 -33 30
-39 30 -5 0 4 -13 20 -30z"/>
<path d="M6980 2876 c0 -2 8 -10 18 -17 15 -13 16 -12 3 4 -13 16 -21 21 -21
13z"/>
<path d="M6790 2864 c0 -12 49 -58 55 -52 3 2 -9 17 -25 33 -17 16 -30 25 -30
19z"/>
<path d="M6916 2792 c29 -29 55 -52 60 -52 11 0 -45 58 -81 83 -18 12 -10 0
21 -31z"/>
<path d="M6930 2825 c7 -9 15 -13 17 -11 7 7 -7 26 -19 26 -6 0 -6 -6 2 -15z"/>
<path d="M6770 2820 c0 -5 5 -10 11 -10 5 0 7 5 4 10 -3 6 -8 10 -11 10 -2 0
-4 -4 -4 -10z"/>
<path d="M6960 2802 c0 -12 19 -26 26 -19 2 2 -2 10 -11 17 -9 8 -15 8 -15 2z"/>
<path d="M7010 2801 c0 -5 7 -12 16 -15 14 -5 15 -4 4 9 -14 17 -20 19 -20 6z"/>
<path d="M6800 2791 c0 -6 4 -11 9 -11 4 0 34 -25 65 -55 31 -30 58 -55 61
-55 3 0 18 -14 35 -32 17 -17 32 -29 35 -26 4 4 -167 166 -192 182 -7 4 -13 2
-13 -3z"/>
<path d="M6860 2792 c0 -12 19 -26 26 -19 2 2 -2 10 -11 17 -9 8 -15 8 -15 2z"/>
<path d="M6685 2779 c-4 -6 -5 -12 -2 -15 2 -3 7 2 10 11 7 17 1 20 -8 4z"/>
<path d="M6750 2780 c0 -5 5 -10 10 -10 6 0 25 -16 43 -35 17 -19 36 -35 42
-35 6 0 16 -9 23 -20 7 -11 18 -20 25 -20 12 0 -122 129 -135 130 -5 0 -8 -4
-8 -10z"/>
<path d="M6900 2761 c0 -10 19 -25 25 -20 1 2 -3 10 -11 17 -8 7 -14 8 -14 3z"/>
<path d="M7000 2766 c0 -2 8 -10 18 -17 15 -13 16 -12 3 4 -13 16 -21 21 -21
13z"/>
<path d="M6720 2751 c0 -5 10 -16 23 -24 12 -8 42 -33 66 -56 25 -22 47 -38
50 -35 6 6 -119 124 -131 124 -5 0 -8 -4 -8 -9z"/>
<path d="M7982 2711 c18 -27 42 -54 52 -61 10 -6 -3 15 -29 49 -26 34 -50 61
-52 61 -2 0 12 -22 29 -49z"/>
<path d="M6735 2705 c93 -86 106 -97 110 -93 3 3 -23 29 -58 59 -72 64 -111
89 -52 34z"/>
<path d="M6956 2700 c16 -16 33 -30 38 -30 6 0 -3 14 -19 30 -16 17 -33 30
-39 30 -5 0 4 -13 20 -30z"/>
<path d="M7010 2705 c13 -14 26 -25 28 -25 3 0 -5 11 -18 25 -13 14 -26 25
-28 25 -3 0 5 -11 18 -25z"/>
<path d="M7911 2684 c0 -11 3 -14 6 -6 3 7 2 16 -1 19 -3 4 -6 -2 -5 -13z"/>
<path d="M6647 2653 c-8 -7 34 -53 48 -53 6 0 16 -9 23 -20 7 -12 17 -18 22
-15 6 3 10 -1 10 -9 0 -20 19 -31 32 -18 6 6 -10 26 -47 58 -64 56 -80 66 -88
57z"/>
<path d="M6970 2592 c6 -13 14 -21 18 -18 3 4 -2 14 -12 24 -18 16 -18 16 -6
-6z"/>
<path d="M7003 2542 c1 -12 6 -18 15 -15 7 3 10 9 5 12 -4 3 -11 10 -15 15 -4
4 -6 -1 -5 -12z"/>
<path d="M7026 2505 c4 -8 8 -15 10 -15 2 0 4 7 4 15 0 8 -4 15 -10 15 -5 0
-7 -7 -4 -15z"/>
<path d="M8030 2346 c-24 -12 -36 -23 -29 -27 8 -4 1 -13 -17 -23 -39 -20 -24
-20 20 1 19 9 32 21 29 26 -4 6 0 8 9 4 9 -3 25 4 37 17 28 30 6 31 -49 2z
m50 10 c0 -2 -8 -10 -17 -17 -16 -13 -17 -12 -4 4 13 16 21 21 21 13z"/>
<path d="M9434 2296 c1 -19 51 -56 76 -56 17 0 11 30 -11 53 -27 29 -65 30
-65 3z"/>
<path d="M8040 2290 c-9 -6 -10 -10 -3 -10 6 0 15 5 18 10 8 12 4 12 -15 0z"/>
<path d="M8100 2283 c0 -5 -10 -15 -22 -21 -17 -8 -18 -11 -7 -11 19 -1 45 26
35 36 -3 3 -6 2 -6 -4z"/>
<path d="M2125 1890 c-3 -5 -1 -10 4 -10 6 0 11 5 11 10 0 6 -2 10 -4 10 -3 0
-8 -4 -11 -10z"/>
<path d="M7461 1394 c0 -11 3 -14 6 -6 3 7 2 16 -1 19 -3 4 -6 -2 -5 -13z"/>
<path d="M7305 1349 c-4 -6 -5 -12 -2 -15 2 -3 7 2 10 11 7 17 1 20 -8 4z"/>
<path d="M7480 1356 c0 -2 7 -9 15 -16 13 -11 14 -10 9 4 -5 14 -24 23 -24 12z"/>
<path d="M5835 1320 c3 -5 14 -10 23 -10 15 0 15 2 2 10 -20 13 -33 13 -25 0z"/>
<path d="M2821 1287 c-33 -17 -49 -43 -35 -57 9 -9 21 -3 48 20 52 46 44 67
-13 37z"/>
<path d="M7335 1250 c-34 -35 -104 -64 -140 -58 -32 7 -55 -17 -26 -27 12 -3
21 -10 21 -14 0 -5 15 -12 33 -16 50 -11 67 -12 67 -3 0 4 -10 8 -22 9 -22 0
-22 1 -3 10 17 8 15 8 -7 4 -17 -3 -28 -1 -28 5 0 6 -4 8 -10 5 -5 -3 -10 -1
-10 5 0 6 6 10 13 9 21 -4 77 12 77 22 0 6 5 7 12 3 7 -4 8 -3 4 4 -4 7 -3 12
2 12 4 0 18 14 30 30 29 38 24 38 -13 0z"/>
<path d="M7210 1260 c-8 -6 -32 -15 -54 -21 -21 -6 -36 -12 -34 -14 2 -3 22 1
44 7 21 6 42 11 46 10 3 -1 9 5 12 13 6 18 6 18 -14 5z"/>
<path d="M7265 1240 c-3 -6 1 -7 9 -4 18 7 21 14 7 14 -6 0 -13 -4 -16 -10z"/>
<path d="M7333 1132 c-27 -12 -26 -12 16 -7 25 3 49 9 54 14 13 13 -36 8 -70
-7z"/>
<path d="M5610 1033 c0 -5 7 -17 15 -27 15 -20 20 -10 9 18 -6 16 -24 22 -24
9z"/>
<path d="M1669 1014 c-16 -19 -2 -30 38 -28 30 1 48 34 19 34 -9 0 -16 -4 -16
-10 0 -5 -5 -10 -11 -10 -5 0 -8 4 -4 9 10 17 -12 21 -26 5z"/>
<path d="M4776 1020 c-5 -12 -22 -15 -71 -14 -58 2 -65 0 -65 -17 0 -21 20
-25 36 -9 14 14 65 19 87 8 12 -6 19 -4 23 6 8 22 -2 46 -10 26z"/>
<path d="M6964 1019 c-3 -6 -1 -15 6 -19 9 -5 9 -9 1 -14 -6 -4 -15 -4 -21 -1
-5 3 -10 1 -10 -5 0 -6 7 -13 15 -17 20 -7 44 24 37 49 -5 20 -17 24 -28 7z"/>
<path d="M5680 991 c0 -7 -4 -9 -10 -6 -5 3 -10 1 -10 -4 0 -6 4 -11 9 -11 13
0 25 20 17 27 -3 4 -6 1 -6 -6z"/>
<path d="M4610 931 c0 -31 27 -51 36 -27 6 17 -12 56 -26 56 -6 0 -10 -13 -10
-29z"/>
<path d="M5792 904 c3 -19 34 -28 44 -12 7 12 5 14 -24 23 -19 6 -23 4 -20
-11z"/>
<path d="M1357 893 c-11 -11 -8 -20 8 -20 8 0 15 6 15 14 0 14 -12 17 -23 6z"/>
<path d="M1650 890 c0 -5 7 -10 15 -10 8 0 15 5 15 10 0 6 -7 10 -15 10 -8 0
-15 -4 -15 -10z"/>
<path d="M1633 839 c-6 -6 -9 -18 -6 -25 3 -8 -1 -14 -8 -14 -17 -1 4 -14 40
-25 21 -6 23 -5 19 13 -4 13 0 23 8 26 26 10 15 27 -12 20 -19 -5 -25 -4 -20
5 9 14 -7 14 -21 0z"/>
<path d="M4714 806 c-16 -18 43 -58 74 -50 26 7 25 5 12 38 -8 21 -16 26 -42
26 -18 -1 -38 -7 -44 -14z"/>
<path d="M4850 759 c0 -5 5 -7 10 -4 6 3 10 8 10 11 0 2 -4 4 -10 4 -5 0 -10
-5 -10 -11z"/>
<path d="M4685 750 c-13 -6 -15 -9 -5 -9 8 0 22 4 30 9 18 12 2 12 -25 0z"/>
<path d="M4876 701 c-25 -27 -15 -54 16 -42 15 5 23 16 23 31 0 31 -17 35 -39
11z"/>
<path d="M6990 634 c0 -17 22 -14 28 4 2 7 -3 12 -12 12 -9 0 -16 -7 -16 -16z"/>
<path d="M4690 541 c0 -5 5 -13 10 -16 6 -3 10 -2 10 4 0 5 -4 13 -10 16 -5 3
-10 2 -10 -4z"/>
<path d="M5247 534 c-9 -10 4 -34 19 -34 8 0 14 9 14 20 0 19 -19 27 -33 14z"/>
<path d="M5210 428 c-13 -5 -35 -6 -47 -3 -19 4 -24 0 -28 -22 -12 -53 -13
-58 -20 -78 -7 -19 -7 -19 7 -1 8 10 20 16 25 13 6 -4 11 4 11 19 0 14 5 31
12 37 10 9 11 9 6 0 -9 -17 14 -28 26 -12 7 11 11 11 15 2 9 -23 42 -58 43
-46 0 8 10 11 29 7 36 -8 52 13 25 33 -10 7 -26 19 -34 26 -42 34 -45 35 -70
25z"/>
<path d="M1440 299 c0 -5 5 -7 10 -4 6 3 10 8 10 11 0 2 -4 4 -10 4 -5 0 -10
-5 -10 -11z"/>
<path d="M5643 206 c-16 -19 -4 -29 13 -11 8 7 14 16 14 19 0 10 -15 6 -27 -8z"/>
<path d="M6290 140 c0 -5 5 -10 10 -10 6 0 10 5 10 10 0 6 -4 10 -10 10 -5 0
-10 -4 -10 -10z"/>
</g>
</svg>
