<?xml version="1.0" standalone="no"?>
<!DOCTYPE svg PUBLIC "-//W3C//DTD SVG 20010904//EN"
 "http://www.w3.org/TR/2001/REC-SVG-20010904/DTD/svg10.dtd">
<svg version="1.0" xmlns="http://www.w3.org/2000/svg"
 width="323.000000pt" height="324.000000pt" viewBox="0 0 323.000000 324.000000"
 preserveAspectRatio="xMidYMid meet">

<g transform="translate(0.000000,324.000000) scale(0.100000,-0.100000)"
fill="#000000" stroke="none">
<path d="M1400 3215 c-673 -89 -1210 -588 -1362 -1267 -20 -92 -23 -128 -22
-333 0 -215 2 -237 27 -342 77 -319 209 -557 436 -784 230 -229 466 -360 784
-435 147 -35 435 -45 592 -20 172 26 338 80 496 162 477 246 799 714 858 1246
81 729 -332 1409 -1021 1682 -230 91 -528 125 -788 91z m460 -40 c383 -56 747
-272 996 -591 290 -371 396 -858 287 -1319 -230 -976 -1295 -1490 -2202 -1064
-171 80 -289 166 -436 313 -190 191 -304 373 -384 611 -287 862 223 1799 1099
2020 217 54 410 64 640 30z"/>
<path d="M1470 3109 c-179 -16 -339 -62 -515 -148 -189 -93 -347 -214 -473
-365 -173 -206 -257 -371 -324 -636 -30 -120 -32 -133 -32 -330 0 -178 3 -219
23 -310 130 -589 572 -1032 1161 -1161 141 -31 460 -34 585 -6 220 50 426 139
587 253 175 125 358 336 455 527 230 447 224 976 -17 1410 -240 435 -683 724
-1175 766 -133 12 -139 12 -275 0z m-634 -440 c-299 -322 -366 -815 -163
-1199 61 -115 117 -189 220 -286 288 -272 687 -358 1065 -230 286 98 528 328
638 607 56 143 68 212 68 389 0 137 -3 180 -21 250 -43 171 -133 339 -255 475
-47 53 -49 57 -18 35 188 -129 331 -298 436 -515 126 -262 164 -561 105 -840
-109 -517 -505 -915 -1026 -1031 -106 -24 -359 -29 -480 -11 -434 67 -824 365
-1000 766 -90 203 -121 371 -112 600 8 216 40 339 137 536 91 184 218 339 372
456 44 32 82 59 85 59 3 0 -20 -27 -51 -61z m1610 -310 l39 3 -28 -30 c-28
-29 -28 -31 -13 -60 23 -44 20 -47 -18 -24 l-34 20 -31 -32 -32 -31 6 45 c6
43 5 46 -27 65 l-33 19 31 6 c43 9 54 18 54 44 0 37 13 39 31 4 15 -29 21 -32
55 -29z m97 -392 l42 -14 -42 -13 c-41 -13 -43 -15 -43 -54 l0 -41 -25 32
c-23 29 -28 31 -56 21 -40 -14 -46 -5 -21 29 l20 27 -27 35 -26 35 25 -7 c14
-4 34 -10 45 -13 15 -4 25 3 40 28 l20 33 3 -42 c3 -39 6 -43 45 -56z m-1648
-299 c-4 -13 -8 -30 -11 -38 -2 -9 11 -23 34 -37 l37 -22 -41 -6 c-37 -6 -42
-11 -50 -44 l-10 -36 -18 34 c-16 31 -21 33 -57 28 -46 -6 -48 0 -12 28 24 20
25 24 15 55 -15 42 -10 47 24 25 26 -17 27 -16 53 9 31 32 44 33 36 4z m1531
-9 c39 23 39 23 20 -23 -13 -32 -13 -35 10 -57 33 -31 30 -35 -15 -31 -36 4
-39 2 -54 -35 -16 -39 -23 -35 -29 17 -2 19 -12 27 -43 36 l-40 11 34 17 c32
17 33 20 27 58 l-7 40 32 -26 31 -27 34 20z m-454 -196 l0 -68 -361 -3 -361
-2 0 70 0 70 358 2 c196 2 359 2 361 1 2 -1 3 -33 3 -70z m250 -120 c45 6 48
-4 11 -31 -24 -18 -25 -21 -14 -52 6 -18 9 -35 7 -37 -2 -2 -17 4 -34 14 -30
17 -31 17 -56 -6 -31 -30 -42 -22 -28 18 10 29 9 32 -24 55 l-36 24 41 7 c34
6 42 12 47 33 11 46 18 48 33 8 14 -37 16 -38 53 -33z m-372 -103 l0 -60 -237
0 -238 0 -3 50 c-1 28 0 55 3 60 4 6 102 10 241 10 l234 0 0 -60z m-110 -205
l0 -55 -125 0 -125 0 0 55 0 55 125 0 125 0 0 -55z"/>
<path d="M2335 1011 c-7 -12 12 -24 25 -16 11 7 4 25 -10 25 -5 0 -11 -4 -15
-9z"/>
<path d="M805 990 c-4 -6 -2 -17 4 -23 8 -8 -2 -25 -41 -64 -41 -41 -50 -55
-40 -65 10 -10 24 -1 65 40 41 41 55 50 65 40 8 -8 15 -9 22 -2 7 7 -3 23 -29
48 -26 26 -41 34 -46 26z"/>
<path d="M2372 988 c-9 -11 2 -27 53 -78 54 -53 65 -61 71 -46 10 26 -107 143
-124 124z"/>
<path d="M2301 911 c-26 -26 -26 -43 -2 -65 14 -12 32 -17 62 -14 35 2 44 0
47 -15 3 -14 -2 -17 -24 -15 -33 4 -43 -17 -16 -31 16 -8 26 -6 46 10 52 41
17 96 -53 84 -27 -4 -41 -3 -41 4 0 6 0 14 0 19 0 4 10 7 23 7 29 0 29 29 0
33 -12 2 -31 -6 -42 -17z"/>
<path d="M861 841 c-28 -32 -51 -62 -51 -65 0 -9 53 -55 63 -56 14 0 7 29 -10
39 -17 9 -17 11 0 28 14 14 21 15 37 6 26 -17 38 4 14 22 -18 13 -18 15 -2 31
14 14 20 15 32 5 8 -7 20 -10 27 -6 7 5 2 15 -17 31 -16 13 -32 23 -36 24 -3
0 -29 -26 -57 -59z"/>
<path d="M2203 837 l-31 -22 47 -67 c25 -37 50 -68 54 -68 5 0 22 9 38 21 33
23 30 46 -3 28 -16 -9 -24 -7 -37 6 -15 15 -15 17 2 29 18 14 23 36 8 36 -6 0
-13 -4 -16 -10 -10 -16 -32 -12 -39 6 -4 10 1 25 9 34 25 27 2 32 -32 7z"/>
<path d="M960 770 c-22 -33 -43 -65 -45 -73 -7 -18 51 -50 78 -43 25 6 77 83
77 114 0 17 -46 62 -64 62 -3 0 -24 -27 -46 -60z m76 6 c7 -17 -44 -96 -61
-96 -24 0 -23 13 7 61 32 51 45 59 54 35z"/>
<path d="M2102 774 c-41 -25 -50 -47 -14 -38 13 4 25 -10 50 -56 18 -33 37
-60 42 -60 23 0 18 25 -14 80 -29 49 -33 62 -21 66 15 6 21 34 8 34 -5 0 -27
-12 -51 -26z"/>
<path d="M1200 755 c0 -9 5 -15 11 -13 6 2 11 8 11 13 0 5 -5 11 -11 13 -6 2
-11 -4 -11 -13z"/>
<path d="M1990 754 c0 -17 22 -14 28 4 2 7 -3 12 -12 12 -9 0 -16 -7 -16 -16z"/>
<path d="M1242 739 c2 -6 8 -10 13 -10 5 0 11 4 13 10 2 6 -4 11 -13 11 -9 0
-15 -5 -13 -11z"/>
<path d="M1145 671 c-30 -77 -28 -96 10 -111 38 -15 59 1 82 62 12 29 24 61
28 71 5 12 2 17 -12 17 -13 0 -25 -17 -42 -60 -25 -64 -37 -78 -51 -64 -5 5 2
35 16 69 23 58 25 85 5 85 -5 0 -21 -31 -36 -69z"/>
<path d="M2012 731 c-19 -11 46 -161 71 -161 22 0 22 -3 -15 82 -37 87 -39 89
-56 79z"/>
<path d="M1935 702 c-30 -6 -45 -22 -45 -48 0 -30 25 -54 56 -54 26 0 41 -21
29 -40 -5 -9 -10 -9 -18 -1 -6 6 -19 11 -29 11 -16 0 -17 -3 -8 -20 21 -40
100 -16 100 30 0 21 -35 50 -61 50 -21 0 -43 26 -34 40 5 8 12 7 24 -4 11 -10
21 -12 31 -6 13 8 12 12 -5 28 -11 10 -29 17 -40 14z"/>
<path d="M1450 686 c0 -9 7 -16 16 -16 9 0 14 5 12 12 -6 18 -28 21 -28 4z"/>
<path d="M1286 639 c-9 -28 -18 -67 -22 -86 -11 -57 18 -36 37 28 l17 54 -1
-65 c-2 -63 -1 -65 22 -65 22 0 27 7 43 70 27 107 9 131 -24 32 l-17 -52 2 59
c2 52 0 59 -20 67 -20 7 -24 4 -37 -42z"/>
<path d="M1784 659 l-32 -9 14 -67 c20 -96 23 -103 40 -96 11 4 13 14 8 39 -5
27 -3 34 9 34 9 0 18 -13 22 -30 9 -41 45 -43 37 -2 -2 15 -10 33 -16 41 -6 7
-9 26 -8 41 2 15 -4 34 -13 44 -18 18 -18 18 -61 5z m46 -55 c0 -21 -27 -17
-33 5 -3 11 -2 22 1 25 8 9 32 -14 32 -30z"/>
<path d="M1431 607 c-18 -91 -18 -121 0 -125 13 -2 18 9 22 51 4 29 9 67 13
84 4 22 2 32 -9 36 -12 5 -18 -6 -26 -46z"/>
<path d="M1501 633 c0 -10 6 -49 12 -88 9 -52 17 -71 30 -73 19 -4 30 18 51
108 13 57 12 60 -5 60 -14 0 -20 -11 -25 -50 -4 -27 -10 -50 -14 -50 -4 0 -11
25 -15 55 -4 38 -11 55 -21 55 -8 0 -14 -8 -13 -17z"/>
<path d="M1640 601 c0 -21 3 -59 6 -85 7 -46 7 -46 45 -46 28 0 39 4 39 15 0
9 -9 15 -25 15 -20 0 -25 5 -25 25 0 20 5 25 25 25 34 0 32 18 -2 22 -36 4
-40 41 -5 46 38 6 24 22 -18 22 -40 0 -40 0 -40 -39z"/>
</g>
</svg>
