<?xml version="1.0" standalone="no"?>
<!DOCTYPE svg PUBLIC "-//W3C//DTD SVG 20010904//EN"
 "http://www.w3.org/TR/2001/REC-SVG-20010904/DTD/svg10.dtd">
<svg version="1.0" xmlns="http://www.w3.org/2000/svg"
 width="1250.000000pt" height="1250.000000pt" viewBox="0 0 1250.000000 1250.000000"
 preserveAspectRatio="xMidYMid meet">

<g transform="translate(0.000000,1250.000000) scale(0.100000,-0.100000)"
fill="#000000" stroke="none">
<path d="M6025 10309 c-596 -45 -1175 -274 -1645 -649 -135 -108 -352 -325
-460 -460 -319 -400 -529 -869 -615 -1374 -125 -741 36 -1510 449 -2136 116
-176 229 -314 386 -470 446 -447 994 -730 1614 -835 741 -125 1510 36 2136
449 176 116 314 229 470 386 447 446 730 994 835 1614 125 741 -36 1510 -449
2136 -45 69 -120 172 -166 230 -108 135 -325 352 -460 460 -592 473 -1342 706
-2095 649z m605 -84 c333 -46 610 -130 905 -275 313 -155 521 -305 776 -559
254 -255 404 -463 559 -776 147 -298 228 -565 277 -915 27 -191 24 -586 -6
-780 -104 -689 -413 -1273 -921 -1743 -424 -393 -959 -647 -1560 -739 -210
-32 -610 -32 -820 0 -513 79 -950 261 -1353 566 -538 405 -918 988 -1077 1650
-58 240 -74 383 -74 676 0 223 4 288 22 410 107 695 412 1271 928 1749 460
425 1061 689 1714 751 132 12 492 4 630 -15z"/>
<path d="M6115 10104 c-355 -27 -612 -83 -901 -199 -357 -143 -643 -334 -924
-615 -211 -211 -365 -417 -493 -660 -316 -598 -403 -1285 -247 -1945 120 -507
386 -975 762 -1340 145 -142 239 -217 411 -332 348 -233 745 -379 1187 -439
170 -23 510 -23 680 0 447 60 841 207 1197 446 322 216 564 458 780 783 95
142 214 371 277 533 75 196 140 466 167 694 15 135 15 465 0 600 -60 519 -247
981 -570 1405 -97 129 -357 389 -486 486 -421 320 -898 514 -1395 568 -109 12
-371 21 -445 15z m-1273 -789 c-457 -478 -646 -1122 -517 -1763 78 -382 259
-717 539 -997 371 -371 863 -575 1386 -575 679 0 1312 353 1672 933 347 557
387 1277 104 1872 -95 200 -208 363 -369 532 -86 90 -89 94 -42 63 381 -257
695 -627 877 -1033 286 -637 292 -1354 16 -1997 -243 -566 -712 -1035 -1278
-1278 -320 -138 -633 -202 -980 -202 -337 0 -643 61 -956 191 -572 236 -1057
717 -1302 1289 -138 320 -202 633 -202 980 0 88 5 204 11 258 78 713 445 1335
1039 1761 47 33 87 61 89 61 2 0 -37 -43 -87 -95z m2852 -561 l29 -65 76 6 76
7 -53 -54 -53 -54 30 -65 c16 -35 28 -66 26 -67 -2 -2 -32 12 -67 31 l-63 35
-55 -48 c-30 -27 -56 -48 -57 -46 -2 1 3 34 11 73 l13 71 -51 28 c-87 46 -87
48 -5 59 l74 10 14 73 c8 39 17 72 20 72 4 0 19 -30 35 -66z m276 -783 c39
-12 70 -24 70 -26 0 -2 -31 -14 -70 -26 l-70 -23 0 -75 -1 -76 -22 26 c-12 14
-34 40 -48 59 l-25 33 -69 -21 c-38 -12 -71 -20 -72 -18 -2 1 15 27 37 56 22
30 40 59 40 65 0 6 -18 35 -40 65 -22 29 -39 55 -37 56 2 2 31 -6 66 -16 34
-11 66 -20 71 -20 4 0 27 26 51 58 l44 57 3 -76 3 -75 69 -23z m-3064 -588
l-13 -71 51 -28 c87 -46 87 -48 5 -59 l-74 -10 -14 -72 c-8 -40 -17 -73 -20
-73 -4 0 -19 30 -35 66 l-29 65 -76 -6 -76 -7 53 54 53 54 -30 65 c-16 35 -28
66 -26 67 2 2 32 -12 67 -31 l63 -35 55 48 c30 27 56 48 57 46 2 -1 -3 -34
-11 -73z m2780 -14 c3 -6 35 7 71 27 35 19 66 34 68 32 2 -1 -10 -32 -26 -67
l-30 -65 53 -54 53 -54 -76 7 -76 6 -29 -65 c-16 -36 -31 -66 -35 -66 -3 0
-12 33 -20 73 l-14 72 -73 8 c-39 5 -70 13 -67 18 3 4 32 22 64 39 l58 31 -13
72 c-8 40 -14 74 -14 75 0 6 99 -78 106 -89z m-766 -334 l0 -135 -670 0 -670
0 0 135 0 135 670 0 670 0 0 -135z m365 -162 l26 -68 77 3 77 3 -40 -33 c-21
-18 -48 -40 -58 -48 -18 -15 -18 -17 7 -80 14 -35 26 -67 26 -72 0 -5 -24 6
-52 25 -29 18 -58 36 -64 40 -6 3 -37 -16 -70 -43 -32 -27 -60 -48 -61 -46 -1
1 6 35 17 75 l18 73 -66 41 -67 42 72 6 c39 4 75 9 80 12 6 4 15 32 22 64 13
57 19 73 26 73 2 0 15 -30 30 -67z m-595 -258 l0 -115 -440 0 -440 0 0 115 0
115 440 0 440 0 0 -115z m-210 -375 l0 -100 -230 0 -230 0 0 100 0 100 230 0
230 0 0 -100z"/>
<path d="M7596 6202 c-15 -18 -15 -20 4 -37 19 -17 21 -17 40 0 19 17 19 19 4
37 -10 10 -20 18 -24 18 -4 0 -14 -8 -24 -18z"/>
<path d="M4740 6155 c-11 -13 -9 -20 11 -41 l23 -25 -92 -92 c-51 -51 -92 -96
-92 -101 0 -5 8 -18 17 -28 16 -18 21 -15 115 79 l97 97 25 -23 c21 -20 28
-22 41 -11 24 20 19 32 -48 98 -66 66 -77 71 -97 47z"/>
<path d="M7660 6145 c-13 -14 -21 -26 -19 -27 3 -2 55 -52 116 -112 111 -108
112 -110 133 -91 11 10 20 23 20 29 0 6 -51 59 -114 118 l-113 107 -23 -24z"/>
<path d="M7529 6011 c-47 -47 -50 -79 -11 -121 29 -33 47 -36 133 -25 52 7 58
6 69 -15 6 -12 9 -28 6 -36 -7 -17 -48 -18 -64 -2 -10 10 -17 8 -33 -9 -25
-24 -20 -37 22 -58 25 -13 33 -14 62 -1 40 16 77 64 77 99 0 14 -12 40 -27 57
-26 32 -27 32 -111 28 -73 -3 -86 -1 -96 15 -9 15 -7 21 8 33 17 12 22 12 38
-3 17 -15 20 -15 44 8 l25 24 -26 22 c-39 34 -71 29 -116 -16z"/>
<path d="M4853 5880 c-54 -67 -99 -124 -100 -128 -1 -4 26 -29 59 -56 58 -48
61 -49 75 -30 13 17 11 22 -20 50 l-34 32 24 31 c29 37 33 38 71 6 22 -18 32
-21 40 -13 19 19 14 35 -19 61 l-31 24 27 31 27 32 34 -27 c33 -25 36 -25 52
-9 16 17 15 19 -18 47 -19 17 -47 39 -62 50 l-27 19 -98 -120z"/>
<path d="M7355 5876 c-33 -24 -59 -48 -57 -55 1 -6 41 -67 88 -135 l87 -123
63 44 c35 25 64 48 64 53 0 4 -7 13 -15 20 -11 9 -20 8 -44 -9 -39 -28 -46
-27 -72 10 l-22 32 33 27 c23 18 31 32 27 44 -9 22 -23 20 -59 -6 -30 -21 -31
-21 -45 -2 -35 46 -35 51 2 74 39 24 41 29 23 53 -12 14 -19 12 -73 -27z"/>
<path d="M5033 5738 c-44 -68 -83 -128 -86 -134 -7 -12 79 -70 119 -80 39 -10
70 13 121 90 61 93 71 127 49 161 -16 24 -100 85 -117 85 -4 0 -43 -55 -86
-122z m147 2 c0 -19 -68 -128 -94 -149 -13 -11 -22 -11 -41 -3 l-25 11 62 95
c59 90 63 94 80 79 10 -9 18 -24 18 -33z"/>
<path d="M7161 5757 c-78 -44 -86 -53 -71 -77 8 -13 13 -13 39 3 l30 18 17
-33 c9 -18 39 -72 66 -120 l49 -88 30 15 29 16 -24 42 c-103 181 -116 207 -98
207 20 0 43 27 36 43 -9 24 -20 22 -103 -26z"/>
<path d="M5479 5738 c-10 -18 -8 -24 7 -35 24 -18 29 -17 42 11 9 20 7 25 -14
34 -20 10 -25 8 -35 -10z"/>
<path d="M6963 5749 c-24 -9 -27 -17 -17 -43 7 -19 24 -20 47 -3 13 10 14 16
4 33 -9 17 -17 20 -34 13z"/>
<path d="M5557 5698 c-6 -22 6 -38 30 -38 18 0 27 41 12 51 -23 14 -36 10 -42
-13z"/>
<path d="M5421 5668 c-5 -13 -25 -63 -45 -112 -54 -135 -46 -181 39 -205 44
-12 76 -2 96 31 19 28 103 238 98 241 -2 2 -16 8 -30 14 -26 11 -26 11 -76
-110 -44 -109 -52 -122 -74 -122 -14 0 -25 7 -27 16 -2 9 18 68 43 130 42 105
44 115 28 127 -25 18 -42 15 -52 -10z"/>
<path d="M6986 5667 c-18 -13 -15 -21 43 -152 34 -77 63 -141 65 -142 8 -8 56
10 56 21 0 23 -123 286 -134 286 -7 0 -20 -6 -30 -13z"/>
<path d="M5938 5595 c-6 -29 -2 -35 28 -35 25 0 41 39 21 52 -24 15 -45 8 -49
-17z"/>
<path d="M6813 5610 c-35 -14 -56 -55 -49 -93 8 -44 41 -74 91 -82 76 -13 112
-60 66 -85 -20 -10 -44 4 -53 30 -5 16 -58 -6 -58 -23 0 -8 10 -27 22 -42 19
-24 26 -27 66 -22 65 7 96 34 100 86 5 72 -19 93 -130 116 -34 7 -55 40 -37
61 16 20 36 17 49 -7 9 -16 17 -19 38 -14 15 4 29 8 30 10 7 6 -9 45 -24 60
-17 16 -76 19 -111 5z"/>
<path d="M5626 5440 c-33 -127 -37 -153 -25 -161 29 -18 37 -6 64 99 15 59 30
109 32 112 3 3 2 -49 -2 -115 l-6 -120 43 -12 c23 -6 44 -10 46 -8 4 4 82 293
82 304 0 5 -11 11 -25 13 -22 5 -26 1 -36 -36 -40 -155 -66 -232 -55 -160 11
66 16 213 8 218 -5 3 -26 8 -48 11 l-39 7 -39 -152z"/>
<path d="M6555 5538 c-22 -6 -41 -12 -43 -13 -2 -2 12 -73 30 -159 l32 -157
31 7 c16 3 31 7 32 8 1 1 -4 30 -12 64 -11 54 -11 64 1 69 26 10 43 -6 54 -49
17 -66 18 -68 37 -68 38 0 42 12 28 72 -15 68 -21 78 -43 78 -12 0 -13 3 -4
12 25 25 10 119 -22 140 -15 10 -73 8 -121 -4z m85 -57 c16 -31 12 -59 -11
-71 -26 -14 -26 -14 -37 37 -7 30 -6 43 2 47 23 9 36 6 46 -13z"/>
<path d="M5900 5385 c-20 -134 -21 -158 -9 -166 17 -11 49 -12 49 -1 0 4 11
74 25 157 13 82 23 150 22 151 -1 1 -16 5 -33 8 l-30 7 -24 -156z"/>
<path d="M6059 5365 c15 -85 29 -156 31 -159 3 -2 20 -6 39 -8 l34 -3 39 154
c40 160 40 170 -4 171 -17 0 -23 -19 -49 -163 -7 -37 -16 -62 -19 -55 -4 7
-13 59 -20 116 l-12 102 -33 0 -32 0 26 -155z"/>
<path d="M6366 5513 l-69 -4 7 -132 c4 -73 9 -146 12 -162 l5 -31 67 4 c86 4
92 7 85 31 -4 17 -13 21 -49 21 -31 0 -44 4 -44 14 0 7 -3 28 -6 45 l-6 31 46
0 c42 0 46 2 46 25 0 23 -4 25 -45 25 -36 0 -45 3 -45 18 0 9 -3 27 -6 38 -5
19 0 22 40 28 40 6 46 10 46 32 0 13 -3 23 -7 22 -5 -1 -39 -4 -77 -5z"/>
<path d="M5200 3525 l0 -95 100 0 101 0 -3 93 -3 92 -97 3 -98 3 0 -96z"/>
<path d="M8960 3525 l0 -95 100 0 100 0 0 95 0 95 -100 0 -100 0 0 -95z"/>
<path d="M11850 3525 l0 -95 100 0 101 0 -3 93 -3 92 -97 3 -98 3 0 -96z"/>
<path d="M3450 3510 l0 -90 90 0 90 0 0 90 0 90 -90 0 -90 0 0 -90z"/>
<path d="M3750 3510 l0 -90 90 0 90 0 0 90 0 90 -90 0 -90 0 0 -90z"/>
<path d="M8275 3327 c-59 -20 -97 -42 -127 -74 -67 -70 -96 -217 -64 -328 23
-76 99 -153 214 -215 182 -98 222 -137 222 -217 0 -62 -24 -108 -67 -128 -91
-43 -173 23 -173 140 l0 45 -110 0 -110 0 0 -68 c0 -142 53 -232 158 -273 45
-17 80 -22 167 -22 125 -2 173 9 241 56 73 49 107 121 112 242 8 180 -45 253
-280 379 -89 49 -153 107 -164 151 -10 41 5 96 36 127 23 22 37 28 72 28 24 0
53 -7 65 -15 26 -18 43 -72 43 -132 l0 -43 111 0 112 0 -5 90 c-8 127 -41 193
-118 235 -51 27 -64 29 -175 32 -80 2 -133 -2 -160 -10z"/>
<path d="M11175 3331 c-56 -14 -104 -43 -141 -83 -57 -63 -68 -99 -69 -218 0
-97 2 -109 27 -151 40 -68 111 -127 228 -188 56 -30 120 -71 141 -92 61 -61
65 -150 9 -212 -25 -28 -35 -32 -79 -32 -44 0 -55 4 -83 32 -28 29 -33 40 -36
98 l-4 65 -110 0 -110 0 4 -92 c5 -106 25 -155 81 -205 54 -48 125 -67 247
-67 152 0 239 34 295 117 53 77 71 227 38 323 -25 75 -114 157 -241 223 -160
84 -206 141 -188 235 14 73 119 114 175 69 24 -19 40 -75 41 -135 l0 -38 111
0 112 0 -6 92 c-8 131 -40 191 -121 233 -55 28 -68 30 -175 32 -64 1 -129 -2
-146 -6z"/>
<path d="M440 3245 l0 -85 115 0 115 0 0 -480 0 -480 115 0 115 0 0 480 0 480
115 0 115 0 0 85 0 85 -345 0 -345 0 0 -85z"/>
<path d="M1317 3323 c-4 -3 -7 -258 -7 -565 l0 -558 280 0 281 0 -3 83 -3 82
-162 3 -163 2 0 160 0 160 155 0 155 0 0 85 0 85 -155 0 -155 0 0 150 0 150
160 0 160 0 0 85 0 85 -268 0 c-148 0 -272 -3 -275 -7z"/>
<path d="M2080 2765 l0 -567 223 4 c200 4 228 6 278 26 78 31 124 81 151 161
19 60 22 93 26 345 4 306 -2 368 -46 450 -60 110 -138 137 -424 144 l-208 4 0
-567z m384 367 c17 -9 40 -35 51 -57 19 -37 20 -60 20 -315 0 -255 -1 -278
-20 -315 -25 -50 -61 -68 -147 -73 l-68 -4 0 397 0 398 66 -6 c36 -4 80 -15
98 -25z"/>
<path d="M3352 2868 l3 -463 26 -55 c45 -95 105 -139 220 -160 72 -13 171 -7
239 15 62 20 115 67 148 129 l27 51 3 473 3 472 -111 0 -110 0 0 -445 c0 -492
-1 -501 -59 -525 -40 -16 -108 -7 -133 18 -11 10 -23 37 -28 58 -5 21 -10 231
-10 467 l0 427 -111 0 -110 0 3 -462z"/>
<path d="M4267 3324 c-4 -4 -7 -259 -7 -566 l0 -558 95 0 95 0 1 463 1 462 93
-460 92 -460 167 -3 166 -2 -2 562 -3 563 -90 0 -90 0 -4 -455 -3 -455 -92
455 -92 455 -160 3 c-88 1 -163 -1 -167 -4z"/>
<path d="M5190 2765 l0 -565 110 0 110 0 0 565 0 565 -110 0 -110 0 0 -565z"/>
<path d="M5573 3308 c3 -13 56 -267 118 -565 l113 -543 132 0 132 0 10 48 c66
305 222 1062 222 1070 0 8 -32 12 -104 12 -99 0 -104 -1 -109 -22 -3 -13 -36
-206 -73 -431 -37 -224 -69 -406 -70 -404 -2 2 -35 185 -74 408 -39 222 -72
414 -75 427 -5 21 -9 22 -116 22 -110 0 -111 0 -106 -22z"/>
<path d="M6480 2765 l0 -565 275 0 275 0 0 85 0 85 -165 0 -165 0 0 160 0 160
155 0 155 0 0 85 0 85 -155 0 -155 0 0 150 0 150 160 0 160 0 0 85 0 85 -270
0 -270 0 0 -565z"/>
<path d="M7230 2766 l0 -566 110 0 110 0 0 231 0 231 69 -4 c123 -7 141 -40
141 -267 0 -88 3 -166 6 -175 5 -13 25 -16 113 -16 l107 0 -3 178 c-2 97 -6
195 -9 217 -9 78 -73 144 -139 145 -28 1 -26 3 22 26 29 14 62 39 74 56 28 39
49 126 49 205 0 148 -44 231 -145 272 -56 23 -76 25 -282 29 l-223 4 0 -566z
m349 381 c58 -20 75 -54 75 -152 0 -70 -4 -90 -20 -112 -25 -34 -72 -52 -136
-52 l-48 -1 0 165 0 165 48 -1 c26 0 62 -5 81 -12z"/>
<path d="M8950 2765 l0 -565 110 0 110 0 0 565 0 565 -110 0 -110 0 0 -565z"/>
<path d="M9340 3245 l0 -85 115 0 115 0 0 -480 0 -480 115 0 115 0 0 480 0
480 115 0 115 0 0 85 0 85 -345 0 -345 0 0 -85z"/>
<path d="M10217 3323 c-4 -3 -7 -258 -7 -565 l0 -558 280 0 281 0 -3 83 -3 82
-162 3 -163 2 0 160 0 160 155 0 155 0 0 85 0 85 -155 0 -155 0 0 150 0 150
160 0 160 0 0 85 0 85 -268 0 c-148 0 -272 -3 -275 -7z"/>
<path d="M11840 2765 l0 -565 110 0 110 0 0 565 0 565 -110 0 -110 0 0 -565z"/>
</g>
</svg>
